<svg xmlns="http://www.w3.org/2000/svg" viewBox="0 0 256 87"><rect width="256" height="87" fill="#83c6e7"/><path d="M41.2,41l-1.81,6A7.64,7.64,0,0,0,39,48.75c0,1.19,1,1.79,2.91,1.79l-.69,2.19H28.78l.67-2.19A3.25,3.25,0,0,0,31.38,50a5.63,5.63,0,0,0,1.33-2.61l4.92-16.15a4,4,0,0,0,.19-1q0-1.8-2.67-1.8l.66-2.16H46a25.58,25.58,0,0,1,6,.56,6.46,6.46,0,0,1,3.6,2.25,6.06,6.06,0,0,1,1.34,3.88,7.27,7.27,0,0,1-2.75,5.62Q51.42,40.94,44.78,41Zm.69-2.15h1.85q3.4,0,4.93-2.11a7.57,7.57,0,0,0,1.54-4.59,3.41,3.41,0,0,0-1.09-2.77,5,5,0,0,0-3.27-.92h-.8Z" fill="#fff"/><path d="M64.25,48.12h2a8.84,8.84,0,0,1-2.87,3.69,7.16,7.16,0,0,1-4.53,1.52,4.28,4.28,0,0,1-2.67-.75,2.45,2.45,0,0,1-1-2A21,21,0,0,1,56,47.28L61,30.8a6.9,6.9,0,0,0,.35-1.49c0-.69-.78-1-2.34-1l.6-2a30.88,30.88,0,0,0,6.9-.55h1.85l-7,22.73a5.92,5.92,0,0,0-.31,1.27q0,.63.72.63C62.62,50.33,63.42,49.59,64.25,48.12Z" fill="#fff"/><path d="M78.45,49q-3.37,4.35-6.62,4.35a3.5,3.5,0,0,1-2.53-1.07,4.47,4.47,0,0,1-1.1-3.34,13.52,13.52,0,0,1,3.18-8.53q3.18-4,7.26-4a2.71,2.71,0,0,1,2,.7,3.4,3.4,0,0,1,.87,2.1l.68-2.43h5.59L84.25,48.22a9.77,9.77,0,0,0-.33,1.23.49.49,0,0,0,.55.55c.66,0,1.32-.6,2-1.78h2.17A7.91,7.91,0,0,1,85.83,52a6.79,6.79,0,0,1-4.06,1.36,3.85,3.85,0,0,1-2.46-.77,2.9,2.9,0,0,1-1-2.47A5.77,5.77,0,0,1,78.45,49ZM74.07,48a2,2,0,0,0,.29,1.18,1,1,0,0,0,.85.4,3.19,3.19,0,0,0,2-1.2,12.4,12.4,0,0,0,2.26-4.1,13.61,13.61,0,0,0,1.11-4.23,2.32,2.32,0,0,0-.31-1.31,1.12,1.12,0,0,0-.94-.43c-1.32,0-2.53,1.28-3.64,3.82A16.45,16.45,0,0,0,74.07,48Z" fill="#fff"/><path d="M100.91,51.93q4.86-5,4.86-8.69a5.88,5.88,0,0,0-.7-2.46,6.84,6.84,0,0,1-.82-2.7,1.8,1.8,0,0,1,.64-1.42,2.19,2.19,0,0,1,1.47-.55,2.49,2.49,0,0,1,1.93.9,3.8,3.8,0,0,1,.8,2.63,14.51,14.51,0,0,1-1.44,5.87A28.19,28.19,0,0,1,103,52.34a45.86,45.86,0,0,1-6,5.83,21.57,21.57,0,0,1-6,3.38,16.12,16.12,0,0,1-5.17,1.16,3.87,3.87,0,0,1-2.18-.63,2,2,0,0,1-.94-1.75,2.17,2.17,0,0,1,.78-1.69,2.81,2.81,0,0,1,1.93-.7A6.29,6.29,0,0,1,88.57,59a3.27,3.27,0,0,0,4.64-.61A6.49,6.49,0,0,0,95.08,55a25.85,25.85,0,0,0,.48-5.64,41.88,41.88,0,0,0-.5-7.52c-.33-1.67-.83-2.5-1.49-2.5-.45,0-.84.31-1.18.93a5.24,5.24,0,0,0-.58,2.37H89.89a7.93,7.93,0,0,1,1.82-4.85,5,5,0,0,1,3.81-1.71A4.49,4.49,0,0,1,99.73,39q1.39,2.85,1.4,8.57A37.87,37.87,0,0,1,100.91,51.93Z" fill="#fff"/><path d="M136.81,43.43h-8l-1.52,2.19a6.65,6.65,0,0,0-1.41,2.89c0,1.2.88,1.88,2.64,2l-.67,2.19h-9.39l.66-2.19a4.29,4.29,0,0,0,1.72-.64,6.16,6.16,0,0,0,1.42-1.15c.34-.41,1.3-1.65,2.86-3.74L139.07,25.7h4V47.18a8,8,0,0,0,.18,2.15,1.68,1.68,0,0,0,1,.86,5.21,5.21,0,0,0,2,.35l-.66,2.19H132.55l.67-2.19q2.22-.09,2.91-1a5.78,5.78,0,0,0,.68-3.35Zm0-2.17v-8.8l-6.45,8.8Z" fill="#fff"/><path d="M153.41,46.85a6,6,0,0,1-2.31-1.94,4.55,4.55,0,0,1-.78-2.63,5.53,5.53,0,0,1,2.18-4.35,8.92,8.92,0,0,1,5.89-1.82,10.22,10.22,0,0,1,2.78.34,5.89,5.89,0,0,1,2.1,1,4.17,4.17,0,0,1,3.09-1.37c1.48,0,2.23.62,2.23,1.85s-.48,1.94-1.43,1.94a2.18,2.18,0,0,1-1.54-.82,1.19,1.19,0,0,0-.74-.47,1.09,1.09,0,0,0-.47.15,4.27,4.27,0,0,1,1.09,2.9A5.4,5.4,0,0,1,164.32,45a6.33,6.33,0,0,1-2.87,2.16,14.79,14.79,0,0,1-4.39.72c-2.25.1-3.38.52-3.38,1.27a1,1,0,0,0,.58.86,14.11,14.11,0,0,0,2.86,1,17.92,17.92,0,0,1,5.72,2.31,4.07,4.07,0,0,1,1.7,3.49,4.81,4.81,0,0,1-2.86,4.42,17.18,17.18,0,0,1-8.05,1.54,15.28,15.28,0,0,1-6.78-1.17,3.75,3.75,0,0,1-2.27-3.5,3.22,3.22,0,0,1,1.19-2.6,3.58,3.58,0,0,1,2.17-1c.51,0,.76.24.76.72a1.16,1.16,0,0,1-.25.64,3.86,3.86,0,0,0-.66,2.08,2.3,2.3,0,0,0,1.33,2.14,8.59,8.59,0,0,0,4,.73,10.3,10.3,0,0,0,4.16-.65,2.06,2.06,0,0,0,1.38-1.93,1.49,1.49,0,0,0-.82-1.31,17.23,17.23,0,0,0-3.28-1.23q-3.45-1-4.47-2.17a3.59,3.59,0,0,1-1-2.46C149.07,49.08,150.52,47.68,153.41,46.85Zm2.21-2.91a3.21,3.21,0,0,0,.36,1.7,1.19,1.19,0,0,0,1.08.57c.77,0,1.5-.78,2.19-2.33a11.11,11.11,0,0,0,1-4.53A1.9,1.9,0,0,0,160,38.1a1.2,1.2,0,0,0-1-.41,2,2,0,0,0-1.51.78,7.69,7.69,0,0,0-1.26,2.68A10.89,10.89,0,0,0,155.62,43.94Z" fill="#fff"/><path d="M179.31,49q-3.37,4.35-6.62,4.35a3.5,3.5,0,0,1-2.53-1.07,4.47,4.47,0,0,1-1.1-3.34,13.52,13.52,0,0,1,3.18-8.53q3.18-4,7.26-4a2.71,2.71,0,0,1,2,.7,3.4,3.4,0,0,1,.87,2.1l.68-2.43h5.59l-3.52,11.49a9.77,9.77,0,0,0-.33,1.23.48.48,0,0,0,.54.55c.67,0,1.33-.6,2-1.78h2.16A7.89,7.89,0,0,1,186.69,52a6.81,6.81,0,0,1-4.06,1.36,3.85,3.85,0,0,1-2.46-.77,2.9,2.9,0,0,1-1-2.47A5.77,5.77,0,0,1,179.31,49ZM174.93,48a2,2,0,0,0,.29,1.18,1,1,0,0,0,.85.4,3.19,3.19,0,0,0,2-1.2,12.4,12.4,0,0,0,2.26-4.1,13.61,13.61,0,0,0,1.11-4.23,2.24,2.24,0,0,0-.32-1.31,1.08,1.08,0,0,0-.93-.43c-1.32,0-2.53,1.28-3.64,3.82A16.45,16.45,0,0,0,174.93,48Z" fill="#fff"/><path d="M200.81,48h2q-2.5,5.34-7,5.33a4.17,4.17,0,0,1-2.73-.76,2.76,2.76,0,0,1-.92-2.26,11.27,11.27,0,0,1,.76-3.09l2.35-6.74a4.28,4.28,0,0,0,.27-1,.46.46,0,0,0-.11-.34.42.42,0,0,0-.34-.11c-.66,0-1.44.85-2.34,2.54h-1.88q2.52-5.46,7.11-5.45a3.68,3.68,0,0,1,2.52.79,2.75,2.75,0,0,1,.9,2.18,11,11,0,0,1-.8,3.22l-2.27,6.17a7.34,7.34,0,0,0-.49,1.64.42.42,0,0,0,.13.33.52.52,0,0,0,.36.12c.34,0,.77-.29,1.3-.88A7.55,7.55,0,0,0,200.81,48Zm3.28-19.25a3,3,0,0,1-5.19,2.14,3,3,0,1,1,5.19-2.14Z" fill="#fff"/><path d="M204.66,52.73l3.75-12.23a5,5,0,0,0,.29-1.23.46.46,0,0,0-.13-.37.61.61,0,0,0-.41-.12q-1.23,0-2.46,2.82h-1.63q2.13-5.49,6.7-5.49a3.52,3.52,0,0,1,2.41.76,2.64,2.64,0,0,1,.86,2.07A18.52,18.52,0,0,1,213,44q4.56-7.89,9.08-7.89a3.21,3.21,0,0,1,2.12.75,2.48,2.48,0,0,1,.91,2,7.47,7.47,0,0,1-.39,2l-2,6.51a14.34,14.34,0,0,0-.57,2.18c0,.43.2.65.61.65.8,0,1.66-.83,2.56-2.5h1.93q-2.34,5.18-7.5,5.17a3.77,3.77,0,0,1-2.7-.79,2.55,2.55,0,0,1-.8-1.88,10.8,10.8,0,0,1,.57-2.5l1.82-5.94a7.2,7.2,0,0,0,.31-1.25c0-.39-.22-.58-.65-.58q-1.5,0-3.92,4.23a52.71,52.71,0,0,0-3.52,7.13l-.37,1.39Z" fill="#fff"/></svg>