<svg xmlns="http://www.w3.org/2000/svg" viewBox="0 0 169 169"><rect width="169" height="169" fill="#30b44a"/><path d="M47.93,84.41h-10L36,87.15c-1.17,1.71-1.76,2.91-1.76,3.61,0,1.5,1.1,2.35,3.3,2.54L36.75,96H25l.83-2.74A5.43,5.43,0,0,0,28,92.5a7.45,7.45,0,0,0,1.77-1.44c.43-.51,1.62-2.06,3.58-4.67L50.76,62.25h5V89.1A9.4,9.4,0,0,0,56,91.79a2.08,2.08,0,0,0,1.25,1.07,6.5,6.5,0,0,0,2.52.44L58.94,96H42.61l.83-2.74q2.78-.12,3.63-1.2c.57-.71.86-2.11.86-4.19Zm0-2.71v-11l-8.06,11Z" fill="#fff"/><path d="M74.42,90.27h2.49a11.23,11.23,0,0,1-3.59,4.62,9,9,0,0,1-5.67,1.9,5.29,5.29,0,0,1-3.33-.94,3.06,3.06,0,0,1-1.21-2.55,26.66,26.66,0,0,1,1-4.08l6.3-20.6a8.4,8.4,0,0,0,.44-1.86c0-.86-1-1.29-2.93-1.29l.76-2.54a38.52,38.52,0,0,0,8.61-.68h2.32L70.9,90.66a7.47,7.47,0,0,0-.39,1.59q0,.78.9.78C72.37,93,73.37,92.11,74.42,90.27Z" fill="#fff"/><path d="M90.92,90.13h2.47q-3.14,6.66-8.74,6.66a5.21,5.21,0,0,1-3.42-1A3.45,3.45,0,0,1,80.08,93a14.46,14.46,0,0,1,1-3.86L84,80.73a5.14,5.14,0,0,0,.34-1.27.48.48,0,0,0-.56-.56c-.83,0-1.8,1.06-2.93,3.17H78.47q3.15-6.81,8.89-6.81a4.61,4.61,0,0,1,3.15,1A3.46,3.46,0,0,1,91.63,79a13.79,13.79,0,0,1-1,4L87.8,90.71a8.66,8.66,0,0,0-.61,2.05.57.57,0,0,0,.15.42.65.65,0,0,0,.46.15c.42,0,1-.37,1.62-1.1A10.1,10.1,0,0,0,90.92,90.13ZM95,66.06a3.8,3.8,0,1,1-3.81-3.81,3.7,3.7,0,0,1,2.69,1.11A3.65,3.65,0,0,1,95,66.06Z" fill="#fff"/><path d="M97.44,81H95.51a7.74,7.74,0,0,1,1.81-4.12,4.21,4.21,0,0,1,3.22-1.59q1.9,0,4.61,2.12a1.37,1.37,0,0,0,.81.37c.57,0,1-.34,1.2-1,.3-1,.79-1.46,1.44-1.46a1.36,1.36,0,0,1,1.05.47,1.72,1.72,0,0,1,.41,1.14,4.83,4.83,0,0,1-.43,1.93A43.52,43.52,0,0,1,107.3,83q-2.76,4.62-2.76,6.86a2.89,2.89,0,0,0,2.93,3q2.52,0,5.37-3.23c1.91-2.16,2.86-4.21,2.86-6.17a9.73,9.73,0,0,0-.54-2.8,9,9,0,0,1-.51-2.47,3.29,3.29,0,0,1,.68-2,2.36,2.36,0,0,1,2-.91,2.59,2.59,0,0,1,2.24,1.1,4.47,4.47,0,0,1,.78,2.66c0,2.28-.92,5-2.78,8.2a20.39,20.39,0,0,1-6.53,7.18,14.22,14.22,0,0,1-7.78,2.39,6.06,6.06,0,0,1-4.13-1.35,4.63,4.63,0,0,1-1.55-3.68,7.51,7.51,0,0,1,1.2-4.12,16.83,16.83,0,0,1,3.92-4q3.38-2.61,4-4.17A6.25,6.25,0,0,1,103.1,81a5.46,5.46,0,0,1-3-1,2.2,2.2,0,0,0-1.25-.46C98.16,79.56,97.7,80,97.44,81Z" fill="#fff"/><path d="M128.93,88.49a5.78,5.78,0,0,0-.22,1.49,4.41,4.41,0,0,0,.83,2.91,3.1,3.1,0,0,0,2.49,1,7.05,7.05,0,0,0,3.43-1A14.87,14.87,0,0,0,139,90h3.24a15.62,15.62,0,0,1-5.43,4.83,15.23,15.23,0,0,1-7.58,2,10.09,10.09,0,0,1-5.82-1.56,5.48,5.48,0,0,1-2.28-4.86q0-5.34,5.22-10.23a16.46,16.46,0,0,1,11.45-4.88,6.71,6.71,0,0,1,4.05,1,3.5,3.5,0,0,1,1.35,3q0,3.18-3.93,5.73A26,26,0,0,1,128.93,88.49Zm.57-2.56a10,10,0,0,0,5.32-2.57q2.34-2.11,2.34-4.17a1.54,1.54,0,0,0-.37-1.13,1.42,1.42,0,0,0-1.09-.38c-1.16,0-2.29.73-3.4,2.19A19.26,19.26,0,0,0,129.5,85.93Z" fill="#fff"/></svg>