<svg xmlns="http://www.w3.org/2000/svg" xmlns:xlink="http://www.w3.org/1999/xlink" viewBox="0 0 659 154.55"><defs><linearGradient id="a" x1="77.68" y1="122.8" x2="77.68" y2="21.14" gradientTransform="matrix(1, 0, 0, -1, 0, 149.24)" gradientUnits="userSpaceOnUse"><stop offset="0" stop-color="#f452ff"/><stop offset="1" stop-color="#832bc1"/></linearGradient></defs><path d="M659,35v84.56c0,.63,0,1.24,0,1.85s0,1.22,0,1.83c0,.22,0,.44,0,.66,0,1.16,0,2.22,0,3.3v.46a52.68,52.68,0,0,1-.69,7.49,23.52,23.52,0,0,1-1.31,4.77c-.07.19-.14.38-.23.57a15,15,0,0,1-.65,1.41,22.89,22.89,0,0,1-9.75,9.73,24,24,0,0,1-6.74,2.22,51.55,51.55,0,0,1-7.55.66c-1.19,0-2.43,0-3.63,0H30.6c-1.24,0-2.44,0-3.66,0a52,52,0,0,1-7.55-.66,23.51,23.51,0,0,1-6.69-2.22,22.1,22.1,0,0,1-5.65-4.1,21.38,21.38,0,0,1-4.12-5.65q-.39-.76-.72-1.56a3,3,0,0,1-.15-.38,24,24,0,0,1-1.32-4.75,50.29,50.29,0,0,1-.68-7.58c0-.85-.06-3.69-.06-3.69V30.58S0,27.79.06,27a50.68,50.68,0,0,1,.67-7.56,23.32,23.32,0,0,1,1.55-5.32c.2-.47.41-.94.65-1.4A21.76,21.76,0,0,1,7,7a22.48,22.48,0,0,1,5.66-4.13A24,24,0,0,1,19.37.71,51.37,51.37,0,0,1,27,.05L30.6,0H628.39l3.69.05a50.39,50.39,0,0,1,7.51.66,24.32,24.32,0,0,1,6.75,2.21A22.21,22.21,0,0,1,652,7a22.55,22.55,0,0,1,4.14,5.67c.23.46.44.92.64,1.39a23.46,23.46,0,0,1,1.52,5.27A52.92,52.92,0,0,1,659,27v.4c0,1,0,2.11,0,3.19,0,.27,0,.54,0,.81s0,.66,0,1v.12C659,33.34,659,34.17,659,35Z"/><path d="M126.5,114.55a21.5,21.5,0,0,1-13.66,12.26,44.53,44.53,0,0,1-12.29,1.29H54.8a44.49,44.49,0,0,1-12.28-1.29,21.5,21.5,0,0,1-13.66-12.26c-2-5-2-10.79-2-14.41h0V54.4h0c0-3.62,0-9.36,2-14.41A21.5,21.5,0,0,1,42.52,27.73,44.11,44.11,0,0,1,54.8,26.44h45.75c5,0,9,.32,12.29,1.29A21.5,21.5,0,0,1,126.5,40c2,5,2,10.79,2,14.41v45.74C128.51,103.76,128.49,109.5,126.5,114.55Z" fill-rule="evenodd" fill="url(#a)"/><path d="M126.5,114.55a21.5,21.5,0,0,1-13.66,12.26,44.53,44.53,0,0,1-12.29,1.29H54.8a44.49,44.49,0,0,1-12.28-1.29,21.5,21.5,0,0,1-13.66-12.26c-2-5-2-10.79-2-14.41h0V54.4h0c0-3.62,0-9.36,2-14.41A21.5,21.5,0,0,1,42.52,27.73,44.11,44.11,0,0,1,54.8,26.44h45.75c5,0,9,.32,12.29,1.29A21.5,21.5,0,0,1,126.5,40c2,5,2,10.79,2,14.41v45.74C128.51,103.76,128.49,109.5,126.5,114.55Z" fill="none"/><path d="M86.49,88.89c0-.36,0-.72-.09-1.09a4.64,4.64,0,0,0-1.35-2.93,5.76,5.76,0,0,0-.68-.62,12,12,0,0,0-13.57.15,5.5,5.5,0,0,0-.49.47A4.74,4.74,0,0,0,69,87.8c0,.37-.07.73-.09,1.09a45.41,45.41,0,0,0,.26,6.6c.27,3.12.77,7.27,1.43,11.5a41.92,41.92,0,0,0,1.19,5.8c.56,1.89,2.66,3.54,5.93,3.54s5.38-1.65,5.94-3.54a45.26,45.26,0,0,0,1.19-5.8c.66-4.23,1.16-8.38,1.42-11.5A44,44,0,0,0,86.49,88.89ZM84.37,65.57a8.35,8.35,0,1,0,1.64,5A8.32,8.32,0,0,0,84.37,65.57Zm29,5.18q-.11-1.44-.33-2.85a35.75,35.75,0,1,0-47.15,39.29.47.47,0,0,0,.63-.52c-.18-1.22-.36-2.45-.51-3.66a1.23,1.23,0,0,0-.73-1,31.18,31.18,0,1,1,42.29-37.59,30.82,30.82,0,0,1,1.09,5.1,31.58,31.58,0,0,1,.24,3.91c0,.56,0,1.13-.05,1.68a30.32,30.32,0,0,1-.63,4.79,29.64,29.64,0,0,1-1.61,5.23,28.67,28.67,0,0,1-2.08,4.19A31.33,31.33,0,0,1,90.13,102a1.2,1.2,0,0,0-.72,1c-.16,1.21-.34,2.44-.52,3.66a.48.48,0,0,0,.63.52,35.9,35.9,0,0,0,20.62-18.75,35.18,35.18,0,0,0,3-10.42,36.13,36.13,0,0,0,.29-4.56C113.44,72.55,113.41,71.65,113.34,70.75Zm-13-5A23.94,23.94,0,1,0,64.23,93.25a.47.47,0,0,0,.73-.41,35.1,35.1,0,0,1,0-4s0-.09,0-.14a1.45,1.45,0,0,0-.46-1.16,19.79,19.79,0,0,1-2-2.13,19.37,19.37,0,1,1,34.55-13s0,0,0,.06c0,.32,0,.65,0,1A19.31,19.31,0,0,1,91,87.59a1.49,1.49,0,0,0-.47,1.16,32.9,32.9,0,0,1,0,4.08.48.48,0,0,0,.74.42,23.86,23.86,0,0,0,6.78-7,23.27,23.27,0,0,0,2.51-5.31,24.66,24.66,0,0,0,.74-2.84,23.86,23.86,0,0,0-.84-12.27Z" fill="#fff"/><path d="M183.56,87.83l-5.62-15.57h-8.42l-.92,2.55-17.19,47.62h8.1l4.59-13.56h19.13l4.59,13.56h8.23Zm-17.48,14.79,4.66-13.73,2.55-7.5.27-.79h.21l7.47,22Z" fill="#fff"/><path d="M226.76,87.13a14.79,14.79,0,0,0-7-1.66,14.15,14.15,0,0,0-7.24,1.93,11.72,11.72,0,0,0-4.41,4.54H208V85.86h-7.27v48.68h7.51V116.42h.17c2.16,4.07,6.3,6.4,11.51,6.4,9.18,0,15.26-7.31,15.26-18.67C235.17,96,232,89.9,226.76,87.13Zm-9,29.32c-5.74,0-9.6-4.93-9.6-12.3s3.86-12.28,9.6-12.28,9.67,4.87,9.67,12.28S223.63,116.45,217.79,116.45Z" fill="#fff"/><path d="M260,85.47h-.33a14,14,0,0,0-6.15,1.5,11.87,11.87,0,0,0-5.17,5h-.14V85.86H241v48.68h7.51V116.42h.17c2.16,4.07,6.3,6.4,11.51,6.4,9.18,0,15.26-7.31,15.26-18.67S269.31,85.47,260,85.47Zm-2,31c-5.74,0-9.6-4.93-9.6-12.3s3.86-12.28,9.6-12.28,9.67,4.87,9.67,12.28S263.89,116.45,258.05,116.45Z" fill="#fff"/><path d="M281.51,72.26H289v50.17h-7.52Z" fill="#fff"/><path d="M328.54,106v-2.57a20.62,20.62,0,0,0-2.69-10.81A14.3,14.3,0,0,0,319,86.72a17.88,17.88,0,0,0-7-1.31c-10.29,0-16.93,7.44-16.93,18.91a25.2,25.2,0,0,0,.62,5.72c1.88,8,7.9,12.85,16.63,12.85a21.69,21.69,0,0,0,4.1-.39c6.24-1.25,10.81-5.32,11.65-10.81H321c-1,3.17-4.28,5.15-8.45,5.15-5.91,0-9.84-4.11-9.84-10.37V106Zm-25.8-5.25a10.45,10.45,0,0,1,2.39-6.2,8.89,8.89,0,0,1,6.92-3.08,9.1,9.1,0,0,1,4.76,1.25c2.53,1.53,4.1,4.38,4.21,8Z" fill="#fff"/><path d="M375.85,73.73a18.11,18.11,0,0,0-7.32-1.47H349.72v50.18h7.78V105.29h10.78c9.84,0,16.76-6.74,16.76-16.55C385,81.68,381.5,76.21,375.85,73.73ZM371.21,98a13.92,13.92,0,0,1-4.77.76H357.5V78.83h9c4.32,0,7.46,1.49,9.15,4.23a10.69,10.69,0,0,1,1.45,5.72C377.08,93.42,375,96.63,371.21,98Z" fill="#fff"/><path d="M420.64,94.78A15.39,15.39,0,0,0,415,88.14a17.7,17.7,0,0,0-9.89-2.73,18.09,18.09,0,0,0-8.84,2.11,15.06,15.06,0,0,0-5.74,5.55,21.28,21.28,0,0,0-2.76,11.08c0,11.54,6.71,18.74,17.34,18.74s17.36-7.2,17.36-18.74A22.69,22.69,0,0,0,420.64,94.78ZM405.13,116.7c-6.08,0-9.7-4.63-9.7-12.55a17.6,17.6,0,0,1,1.27-7,8.67,8.67,0,0,1,7.47-5.51c.31,0,.63,0,1,0a10,10,0,0,1,3.17.49c2.87,1,4.9,3.29,5.87,6.76a19.51,19.51,0,0,1,.67,5.31C414.84,112.07,411.22,116.7,405.13,116.7Z" fill="#fff"/><path d="M454.67,72.26V91.94h-.14a11.38,11.38,0,0,0-4-4.38,13.57,13.57,0,0,0-7.52-2.09,14.31,14.31,0,0,0-7.56,2c-4.79,2.94-7.73,8.86-7.73,16.63a27.51,27.51,0,0,0,.36,4.55c1.46,8.69,7.15,14.12,15,14.12,5.31,0,9.49-2.44,11.64-6.61h.14v6.22h7.3V72.26Zm-9.56,44.19c-5.84,0-9.67-4.79-9.67-12.3a15.91,15.91,0,0,1,1.42-6.93,9,9,0,0,1,5.31-4.89s0,0,0,0a9.23,9.23,0,0,1,2.93-.46,7.09,7.09,0,0,1,.81,0,8.83,8.83,0,0,1,7.32,5.16,15.92,15.92,0,0,1,1.5,7.08C454.74,111.58,450.88,116.45,445.11,116.45Z" fill="#fff"/><path d="M494.16,98.44c-.65-3.86-3.68-6.74-8.62-6.74-5.77,0-9.6,4.83-9.6,12.45,0,7.79,3.87,12.48,9.67,12.48,4.66,0,7.72-2.33,8.55-6.57h7.24c-.84,7.68-7,12.83-15.86,12.83-10.43,0-17.24-7.13-17.24-18.74,0-11.37,6.81-18.74,17.17-18.74,9.39,0,15.23,5.91,15.86,13Z" fill="#fff"/><path d="M529.88,86.76a18.86,18.86,0,0,0-7.3-1.35l-1,0c-5,.22-9.14,2.1-11.55,5a10.12,10.12,0,0,0-2.37,6.25h7a5.84,5.84,0,0,1,3.42-4.28,9.62,9.62,0,0,1,3.48-.85l.79,0c4.55,0,7.22,2.29,7.22,6.36v2.78l-10,.56C510.9,101.78,506,105.64,506,112c0,6.57,5,11,12.17,11a13.07,13.07,0,0,0,11.54-6.64h.17v6h7.2V97.36A11.12,11.12,0,0,0,529.88,86.76Zm-.28,22c0,4.76-4.1,8.38-9.35,8.38-4,0-6.67-2.09-6.67-5.29s2.53-5.08,7-5.36l9-.55Z" fill="#fff"/><path d="M558,85.44c8.1,0,13.91,4.48,14.08,11h-7.06c-.31-3.23-3.06-5.21-7.23-5.21s-6.78,1.87-6.78,4.73c0,2.19,1.81,3.64,5.6,4.58l6.16,1.43c7.37,1.77,10.15,4.48,10.15,9.84,0,6.61-6.26,11.13-15.2,11.13-8.62,0-14.43-4.42-15-11.1h7.44c.52,3.51,3.33,5.39,7.89,5.39s7.3-1.84,7.3-4.76c0-2.26-1.39-3.48-5.21-4.45l-6.54-1.6c-6.61-1.6-9.95-5-9.95-10.05C543.71,89.86,549.52,85.44,558,85.44Z" fill="#fff"/><path d="M589.27,77.2v8.66h7V91.8h-7V112c0,3.13,1.39,4.59,4.45,4.59.77,0,2-.11,2.47-.17v5.91a20.62,20.62,0,0,1-4.17.34c-7.4,0-10.29-2.78-10.29-9.87v-21h-5.32V85.86h5.32V77.2Z" fill="#fff"/><path d="M616.42,85.44c8.1,0,13.9,4.48,14.08,11h-7.06c-.31-3.23-3.06-5.21-7.23-5.21s-6.78,1.87-6.78,4.73c0,2.19,1.81,3.64,5.6,4.58l6.15,1.43c7.37,1.77,10.15,4.48,10.15,9.84,0,6.61-6.25,11.13-15.19,11.13-8.62,0-14.43-4.42-15-11.1h7.43c.53,3.51,3.34,5.39,7.9,5.39s7.3-1.84,7.3-4.76c0-2.26-1.39-3.48-5.21-4.45l-6.54-1.6c-6.61-1.6-9.95-5-9.95-10.05C602.09,89.86,607.9,85.44,616.42,85.44Z" fill="#fff"/><path d="M170,55.7H155V31.59h3.74V52.26H170Z" fill="#fff"/><path d="M176.71,29.92A2.2,2.2,0,1,0,179,32.13,2.21,2.21,0,0,0,176.71,29.92Zm-1.79,7.59V55.7h3.57V37.51Z" fill="#fff"/><path d="M190.93,37.16c4.1,0,6.77,1.9,7.12,5.11h-3.44c-.34-1.34-1.64-2.19-3.68-2.19s-3.52,1-3.52,2.37c0,1.09.92,1.77,2.89,2.22l3,.7c3.46.81,5.08,2.29,5.08,5,0,3.42-3.19,5.71-7.53,5.71s-7.15-1.95-7.47-5.18H187c.45,1.41,1.79,2.27,4,2.27s3.83-1,3.83-2.45c0-1.09-.85-1.79-2.68-2.22l-3.17-.74c-3.46-.82-5.06-2.37-5.06-5.08C183.87,39.43,186.82,37.16,190.93,37.16Z" fill="#fff"/><path d="M208,33v4.61h3.94v3H208V50c0,1.9.78,2.74,2.57,2.74a11.88,11.88,0,0,0,1.37-.08v3a11.78,11.78,0,0,1-2,.18c-4,0-5.58-1.4-5.58-4.91V40.61h-2.89v-3h2.89V33Z" fill="#fff"/><path d="M232.05,47.58V46.33c0-5.72-3.06-9.17-8.12-9.17s-8.39,3.69-8.39,9.5,3.19,9.39,8.41,9.39c4.15,0,7.06-2,7.88-5.26h-3.46c-.67,1.42-2.15,2.2-4.33,2.2-2.87,0-4.72-2-4.84-5.21v-.2Zm-8.14-7.37c2.66,0,4.4,1.86,4.48,4.71H219.2C219.4,42.08,221.26,40.21,223.91,40.21Z" fill="#fff"/><path d="M236.87,37.51h3.45V40.4h.27A5.45,5.45,0,0,1,246,37.16c4.06,0,6.3,2.43,6.3,6.76V55.7h-3.59V44.82c0-2.92-1.27-4.37-3.93-4.37s-4.34,1.77-4.34,4.61V55.7h-3.59Z" fill="#fff"/><path d="M275.43,37.16c-5.32,0-8.59,3.57-8.59,9.44s3.26,9.45,8.59,9.45S284,52.49,284,46.6,280.72,37.16,275.43,37.16Zm0,15.7c-3.13,0-4.88-2.29-4.88-6.26s1.75-6.25,4.88-6.25,4.88,2.3,4.88,6.25S278.53,52.86,275.43,52.86Z" fill="#fff"/><path d="M288.81,37.51h3.46V40.4h.27A5.45,5.45,0,0,1,298,37.16c4.06,0,6.3,2.43,6.3,6.76V55.7h-3.59V44.82c0-2.92-1.27-4.37-3.93-4.37s-4.34,1.77-4.34,4.61V55.7h-3.6Z" fill="#fff"/></svg>