<svg xmlns="http://www.w3.org/2000/svg" viewBox="0 0 256 87"><rect width="256" height="87" fill="#83c6e7"/><path d="M69.27,43.75l-2.68,8.73H64.7l.17-2.78a11,11,0,0,1-15.44.78,9.91,9.91,0,0,1-3-7.67,16.86,16.86,0,0,1,2.65-9,16.41,16.41,0,0,1,6.38-6.18,15.8,15.8,0,0,1,7.22-1.9,9.85,9.85,0,0,1,4.14.84A8.72,8.72,0,0,1,70,29.08a14.83,14.83,0,0,0,1.56-2.64h1.94l-1.94,9.08h-2V35a7.28,7.28,0,0,0-1.73-5.24,5.35,5.35,0,0,0-4-1.81,7.13,7.13,0,0,0-5,2.27,17.29,17.29,0,0,0-4,6.64,23.41,23.41,0,0,0-1.61,8,7.22,7.22,0,0,0,1.29,4.53A4.17,4.17,0,0,0,58,51q5.17,0,9-7.28Z" fill="#fff"/><path d="M72.92,46a10.11,10.11,0,0,1,5-8.32A11.54,11.54,0,0,1,84,36.11c2.93,0,5.08.69,6.45,2.09a7,7,0,0,1,2.06,5.06,9.44,9.44,0,0,1-3.16,7.08,11.28,11.28,0,0,1-8.09,3,9.62,9.62,0,0,1-6-1.8A6.53,6.53,0,0,1,72.92,46Zm5.72,2a4.29,4.29,0,0,0,.66,2.61,2.29,2.29,0,0,0,2,.87c1.62,0,2.93-1.22,4-3.65a16.62,16.62,0,0,0,1.53-6.17A4.26,4.26,0,0,0,86,38.84,2.18,2.18,0,0,0,84.33,38q-2.58,0-4.13,3.83A17.38,17.38,0,0,0,78.64,48Z" fill="#fff"/><path d="M94.82,52.73,98.57,40.5a5.6,5.6,0,0,0,.29-1.23.47.47,0,0,0-.14-.37.61.61,0,0,0-.41-.12q-1.23,0-2.46,2.82H94.23q2.13-5.49,6.7-5.49a3.47,3.47,0,0,1,2.4.76,2.64,2.64,0,0,1,.86,2.07A18.8,18.8,0,0,1,103.12,44q4.55-7.89,9.08-7.89a3.23,3.23,0,0,1,2.12.75,2.51,2.51,0,0,1,.91,2,7.47,7.47,0,0,1-.39,2l-2,6.51a15,15,0,0,0-.56,2.18c0,.43.2.65.6.65.81,0,1.66-.83,2.56-2.5h1.93q-2.34,5.18-7.5,5.17a3.73,3.73,0,0,1-2.69-.79,2.55,2.55,0,0,1-.8-1.88,11.16,11.16,0,0,1,.56-2.5l1.82-5.94a6.31,6.31,0,0,0,.31-1.25c0-.39-.21-.58-.64-.58q-1.5,0-3.93,4.23A53.69,53.69,0,0,0,101,51.34l-.37,1.39Z" fill="#fff"/><path d="M129.39,47.2h2.16a11.24,11.24,0,0,1-2.82,4.21,6.46,6.46,0,0,1-4.64,1.92,4.38,4.38,0,0,1-2.8-.88,3.48,3.48,0,0,1-1.12-2.9,13.93,13.93,0,0,1,.84-3.87l2.07-6.78H119.8l.66-2.17h3.28l1.8-5.95h5.82l-1.82,5.95h3.56l-.67,2.17h-3.55l-2.42,8a15,15,0,0,0-.69,2.72.92.92,0,0,0,.19.64.7.7,0,0,0,.56.21Q127.92,50.42,129.39,47.2Z" fill="#fff"/><path d="M143.06,48h2q-2.5,5.34-7,5.33a4.22,4.22,0,0,1-2.74-.76,2.76,2.76,0,0,1-.91-2.26,11.27,11.27,0,0,1,.76-3.09l2.34-6.74a4.51,4.51,0,0,0,.28-1,.46.46,0,0,0-.11-.34.44.44,0,0,0-.34-.11c-.67,0-1.45.85-2.35,2.54H133.1q2.52-5.46,7.11-5.45a3.68,3.68,0,0,1,2.52.79,2.78,2.78,0,0,1,.89,2.18,10.68,10.68,0,0,1-.8,3.22l-2.26,6.17a6.79,6.79,0,0,0-.49,1.64.39.39,0,0,0,.13.33.49.49,0,0,0,.36.12c.34,0,.77-.29,1.3-.88A8.26,8.26,0,0,0,143.06,48Zm3.28-19.25a3,3,0,0,1-5.2,2.14,3,3,0,0,1,2.15-5.19,3.06,3.06,0,0,1,3.05,3.05Z" fill="#fff"/><path d="M146.91,52.73l3.75-12.23a5.6,5.6,0,0,0,.29-1.23.47.47,0,0,0-.14-.37.61.61,0,0,0-.41-.12q-1.23,0-2.46,2.82h-1.62q2.13-5.49,6.7-5.49a3.47,3.47,0,0,1,2.4.76,2.64,2.64,0,0,1,.86,2.07A18.8,18.8,0,0,1,155.21,44q4.54-7.89,9.08-7.89a3.23,3.23,0,0,1,2.12.75,2.51,2.51,0,0,1,.91,2,7.47,7.47,0,0,1-.39,2l-2,6.51a15,15,0,0,0-.56,2.18c0,.43.2.65.6.65.81,0,1.66-.83,2.56-2.5h1.93q-2.34,5.18-7.5,5.17a3.73,3.73,0,0,1-2.69-.79,2.51,2.51,0,0,1-.8-1.88,11.16,11.16,0,0,1,.56-2.5l1.82-5.94a6.31,6.31,0,0,0,.31-1.25c0-.39-.21-.58-.64-.58q-1.5,0-3.93,4.23a53.69,53.69,0,0,0-3.51,7.13l-.37,1.39Z" fill="#fff"/><path d="M184.15,45.48q-4.28,7.86-9.06,7.85a2.69,2.69,0,0,1-2.17-.86,3.17,3.17,0,0,1-.72-2.08,14.21,14.21,0,0,1,.74-3.11l1.8-5.88a7.2,7.2,0,0,0,.35-1.56.71.71,0,0,0-.17-.52.66.66,0,0,0-.49-.16c-.85,0-1.66.87-2.45,2.61h-2q2.25-5.31,7.27-5.31a3.81,3.81,0,0,1,2.79.88,2.64,2.64,0,0,1,.88,1.91,7,7,0,0,1-.35,2L179.13,46c-.53,1.77-.8,2.73-.8,2.87q0,.63.57.63,1.36,0,3.81-3.86a34.26,34.26,0,0,0,3.88-8.9h5.88l-2.79,9.05q-1.23,3.94-1.23,4.2a.7.7,0,0,0,.15.49.51.51,0,0,0,.42.17c.89,0,1.73-1,2.51-2.89h1.59a8.27,8.27,0,0,1-2.72,4.19,6.27,6.27,0,0,1-3.9,1.43,3.73,3.73,0,0,1-2.56-.76,2.84,2.84,0,0,1-.86-2.26,16.88,16.88,0,0,1,.8-3.81C184,46,184.11,45.65,184.15,45.48Z" fill="#fff"/><path d="M201.16,46.69a4.75,4.75,0,0,0-.17,1.2,3.53,3.53,0,0,0,.66,2.32,2.47,2.47,0,0,0,2,.78,5.71,5.71,0,0,0,2.75-.77,12.12,12.12,0,0,0,2.84-2.31h2.6a12.53,12.53,0,0,1-4.35,3.86,12.16,12.16,0,0,1-6.06,1.56,8,8,0,0,1-4.66-1.25,4.36,4.36,0,0,1-1.83-3.88q0-4.28,4.18-8.19a13.18,13.18,0,0,1,9.16-3.9,5.39,5.39,0,0,1,3.25.8,2.81,2.81,0,0,1,1.07,2.4q0,2.53-3.15,4.58A20.56,20.56,0,0,1,201.16,46.69Zm.45-2a7.88,7.88,0,0,0,4.26-2,4.69,4.69,0,0,0,1.88-3.34,1.26,1.26,0,0,0-.3-.91,1.17,1.17,0,0,0-.88-.3,3.6,3.6,0,0,0-2.71,1.76A15.4,15.4,0,0,0,201.61,44.64Z" fill="#fff"/></svg>