<svg xmlns="http://www.w3.org/2000/svg" viewBox="0 0 169 169"><rect width="169" height="169" fill="#242424"/><path d="M23.12,96,24,93.3a4,4,0,0,0,2.51-.71,6.85,6.85,0,0,0,1.69-3.27l6.18-20.19a5,5,0,0,0,.24-1.24,1.87,1.87,0,0,0-.92-1.69,3.74,3.74,0,0,0-1.93-.56l.8-2.71H45.19a28.78,28.78,0,0,1,5.9.53,12.53,12.53,0,0,1,5,2.33,11.9,11.9,0,0,1,3.75,4.67,15,15,0,0,1,1.32,6.36,21.11,21.11,0,0,1-1.49,7.55,17.63,17.63,0,0,1-4.81,6.84,16.58,16.58,0,0,1-7.18,3.9,38.76,38.76,0,0,1-9,.93Zm20.51-30.4-7,22.75A13.32,13.32,0,0,0,36,91.2a1.75,1.75,0,0,0,1,1.54,4.73,4.73,0,0,0,2.47.59,11.1,11.1,0,0,0,6.36-2.09q3-2.08,4.94-7.24a27.53,27.53,0,0,0,1.9-9.5,10.59,10.59,0,0,0-1.2-5.33,6.14,6.14,0,0,0-2.68-2.72,13.93,13.93,0,0,0-4.64-.79Z" fill="#fff"/><path d="M70.78,88.49A5.38,5.38,0,0,0,70.56,90a4.41,4.41,0,0,0,.83,2.91,3.08,3.08,0,0,0,2.49,1,7.08,7.08,0,0,0,3.43-1A14.84,14.84,0,0,0,80.86,90h3.25a15.62,15.62,0,0,1-5.43,4.83,15.26,15.26,0,0,1-7.58,2,10.14,10.14,0,0,1-5.83-1.56A5.48,5.48,0,0,1,63,90.37Q63,85,68.22,80.14a16.46,16.46,0,0,1,11.45-4.88,6.75,6.75,0,0,1,4,1,3.52,3.52,0,0,1,1.34,3q0,3.18-3.93,5.73A25.86,25.86,0,0,1,70.78,88.49Zm.56-2.56a9.88,9.88,0,0,0,5.32-2.57Q79,81.25,79,79.19a1.58,1.58,0,0,0-.37-1.13,1.43,1.43,0,0,0-1.1-.38c-1.15,0-2.29.73-3.39,2.19A19,19,0,0,0,71.34,85.93Z" fill="#fff"/><path d="M101,91.35q-4.22,5.45-8.27,5.44a4.42,4.42,0,0,1-3.16-1.34,5.6,5.6,0,0,1-1.38-4.18,16.87,16.87,0,0,1,4-10.66q4-5,9.08-5a3.45,3.45,0,0,1,2.48.86,4.23,4.23,0,0,1,1.08,2.63l.86-3h7L108.21,90.4a12.12,12.12,0,0,0-.42,1.53.61.61,0,0,0,.68.69q1.25,0,2.49-2.22h2.71a9.88,9.88,0,0,1-3.49,4.68,8.51,8.51,0,0,1-5.08,1.71,4.87,4.87,0,0,1-3.07-1,3.67,3.67,0,0,1-1.25-3.09A7.42,7.42,0,0,1,101,91.35Zm-5.46-1.17a2.49,2.49,0,0,0,.35,1.47,1.2,1.2,0,0,0,1.06.5,4,4,0,0,0,2.55-1.5,15.47,15.47,0,0,0,2.84-5.12,17.37,17.37,0,0,0,1.37-5.29,2.81,2.81,0,0,0-.39-1.64,1.37,1.37,0,0,0-1.17-.53c-1.64,0-3.16,1.59-4.54,4.77S95.49,88.47,95.49,90.18Z" fill="#fff"/><path d="M129.91,92.15q-4,4.66-8.59,4.67a5.07,5.07,0,0,1-3.92-1.61,6.59,6.59,0,0,1-1.48-4.62,15.66,15.66,0,0,1,4.27-10.41q4.28-4.92,9.13-4.92a6.31,6.31,0,0,1,2.73.56A4.82,4.82,0,0,1,134,77.53l2.93-9.6a4.11,4.11,0,0,0,.22-1.14c0-.88-1-1.32-2.9-1.32l.75-2.54c2.57,0,4.32,0,5.25-.11a23.27,23.27,0,0,0,3.4-.57h2.27l-8.33,27.32a9.54,9.54,0,0,0-.51,2.14c0,.69.31,1,.93,1a2.38,2.38,0,0,0,1.4-.75,8,8,0,0,0,1.53-1.86h2.71a14.69,14.69,0,0,1-4.48,4.94,9.49,9.49,0,0,1-5.29,1.72,3.64,3.64,0,0,1-4-3.88C129.86,92.73,129.88,92.48,129.91,92.15Zm-6.67-2.76a4,4,0,0,0,.54,2.29,1.85,1.85,0,0,0,1.61.77,4.89,4.89,0,0,0,3.24-1.61,13.51,13.51,0,0,0,3-5.41,20.5,20.5,0,0,0,1.28-5.14,2.44,2.44,0,0,0-.77-1.75,2.5,2.5,0,0,0-1.82-.77,4,4,0,0,0-2.67,1.43,15.83,15.83,0,0,0-2.91,4.92A15.36,15.36,0,0,0,123.24,89.39Z" fill="#fff"/></svg>