<svg xmlns="http://www.w3.org/2000/svg" viewBox="0 0 256 87"><rect width="256" height="87" fill="#83c6e7"/><path d="M59.62,38.33l-3.19,10.4a11.93,11.93,0,0,0-.62,2.61q0,2.71,4.81,2.72l-1,3.28H40.46l1-3.28a4.91,4.91,0,0,0,2.84-.77c.74-.52,1.43-1.86,2.08-4l7.41-24.23a5,5,0,0,0,.32-1.5,2.21,2.21,0,0,0-1.11-2,5,5,0,0,0-2.7-.69l1-3.25H80.39l.18,9.72H77.43c-.9-2.58-1.88-4.3-3-5.17a7.38,7.38,0,0,0-4.74-1.3H64.92l-4.3,14.21h2.22A7,7,0,0,0,67.21,34q1.44-1.11,2.52-4.51h3.51l-4.8,15.73H64.92a11,11,0,0,0,.74-3.69,2.6,2.6,0,0,0-1.23-2.41,5.55,5.55,0,0,0-2.93-.75Z" fill="#fff"/><path d="M90.88,50.25h3q-3.75,8-10.49,8a6.3,6.3,0,0,1-4.1-1.14,4.16,4.16,0,0,1-1.38-3.4A16.91,16.91,0,0,1,79,49.08L82.53,39a6.48,6.48,0,0,0,.41-1.52.68.68,0,0,0-.16-.51.69.69,0,0,0-.51-.16q-1.5,0-3.52,3.8H75.94q3.78-8.16,10.66-8.17a5.54,5.54,0,0,1,3.78,1.19,4.12,4.12,0,0,1,1.35,3.26,16.32,16.32,0,0,1-1.2,4.84L87.13,51a10.14,10.14,0,0,0-.73,2.46.61.61,0,0,0,.19.49.77.77,0,0,0,.54.18q.77,0,2-1.32A12.16,12.16,0,0,0,90.88,50.25ZM95.8,21.37a4.57,4.57,0,1,1-4.57-4.57,4.58,4.58,0,0,1,4.57,4.57Z" fill="#fff"/><path d="M96.65,57.34,102.28,39a8.32,8.32,0,0,0,.44-1.84.69.69,0,0,0-.21-.56.91.91,0,0,0-.61-.18q-1.84,0-3.7,4.22H95.77q3.2-8.22,10-8.23a5.28,5.28,0,0,1,3.61,1.14,4,4,0,0,1,1.28,3.11,27.71,27.71,0,0,1-1.61,7.59q6.83-11.83,13.63-11.84a4.85,4.85,0,0,1,3.18,1.13,3.75,3.75,0,0,1,1.36,3,11.35,11.35,0,0,1-.59,3l-3,9.75a22,22,0,0,0-.85,3.29c0,.64.31,1,.91,1q1.81,0,3.84-3.75h2.9q-3.51,7.77-11.25,7.77a5.64,5.64,0,0,1-4-1.19,3.83,3.83,0,0,1-1.2-2.83,16.15,16.15,0,0,1,.85-3.75l2.72-8.9a10.08,10.08,0,0,0,.47-1.88c0-.59-.32-.88-1-.88q-2.25,0-5.89,6.36a78.54,78.54,0,0,0-5.27,10.69l-.56,2.08Z" fill="#fff"/><path d="M147.13,50.25h3q-3.75,8-10.49,8a6.3,6.3,0,0,1-4.1-1.14,4.16,4.16,0,0,1-1.38-3.4,16.91,16.91,0,0,1,1.15-4.63L138.78,39a6.48,6.48,0,0,0,.41-1.52.68.68,0,0,0-.16-.51.69.69,0,0,0-.51-.16q-1.5,0-3.52,3.8h-2.81q3.78-8.16,10.66-8.17a5.54,5.54,0,0,1,3.78,1.19A4.12,4.12,0,0,1,148,36.86a16.32,16.32,0,0,1-1.2,4.84L143.38,51a10.14,10.14,0,0,0-.73,2.46.61.61,0,0,0,.19.49.77.77,0,0,0,.54.18q.76,0,2-1.32A12.16,12.16,0,0,0,147.13,50.25Zm4.92-28.88a4.57,4.57,0,1,1-4.57-4.57,4.58,4.58,0,0,1,4.57,4.57Z" fill="#fff"/><path d="M151.7,52.13a4,4,0,0,1,1-2.62,3.37,3.37,0,0,1,2.77-1.16q3.29,0,4,4.19.47,3.1,4.27,3.1a5.76,5.76,0,0,0,3.34-.85,2.49,2.49,0,0,0,1.23-2.11,2,2,0,0,0-.67-1.47,26.5,26.5,0,0,0-3.43-2.42,23,23,0,0,1-5.58-4.38,6.71,6.71,0,0,1-1.39-4.29,6.44,6.44,0,0,1,3.24-5.57q3.24-2.14,9.24-2.14,5,0,7.34,1.42a4.14,4.14,0,0,1,2.3,3.53,3.09,3.09,0,0,1-1.11,2.45,3.79,3.79,0,0,1-2.49.95q-3,0-3.55-3.28-.41-2.52-3.6-2.52a4.84,4.84,0,0,0-2.87.7,2.43,2.43,0,0,0-1,2.11,2.07,2.07,0,0,0,.66,1.51,18.51,18.51,0,0,0,3.12,2.1q4.36,2.52,5.71,4.6a7.44,7.44,0,0,1,1.35,4.07,6.94,6.94,0,0,1-3.37,5.9q-3.37,2.32-9.52,2.33a17.39,17.39,0,0,1-7.91-1.55A5,5,0,0,1,151.7,52.13Z" fill="#fff"/><path d="M181.35,57.34l10.22-33.43a6.6,6.6,0,0,0,.36-1.69c0-1-1.21-1.56-3.61-1.56l1-3c3.06,0,5.15-.05,6.25-.14a27.33,27.33,0,0,0,4.06-.68h2.78l-7.15,23.43q5.55-7.81,12.07-7.82A5.2,5.2,0,0,1,211,33.54a3.73,3.73,0,0,1,1.22,2.86,8.22,8.22,0,0,1-.31,2q-.3,1.2-3.27,11a21.23,21.23,0,0,0-.76,2.9c0,.53.25.79.73.79a2.49,2.49,0,0,0,1.59-.82,12.82,12.82,0,0,0,1.93-2.46h3.4a15.58,15.58,0,0,1-4.85,5.77,11,11,0,0,1-6.49,2.14c-3.42,0-5.13-1.38-5.13-4.16q0-1.66,2.44-9.11a25.28,25.28,0,0,0,1.34-5q0-1.26-1.17-1.26-1.87,0-4.73,4.1a55.83,55.83,0,0,0-5.23,9.55l-1.67,5.42Z" fill="#fff"/></svg>