<?xml version="1.0" encoding="UTF-8"?><svg id="a" xmlns="http://www.w3.org/2000/svg" viewBox="0 0 256 87"><rect width="256" height="87" fill="#83c6e7"/><g><path d="M15.84,57.25l1.23-22.03c.01-.32,.02-.61,.02-.86,0-.55-.12-.99-.35-1.34-.23-.34-.82-.56-1.76-.63l.66-2.17h11.38l-.66,2.17c-1.08,.03-1.83,.21-2.26,.55-.42,.34-.67,1.27-.75,2.79l-.74,13.34,12.36-18.84h3.4l-.72,18.84,7.93-12.71c.57-.9,.86-1.62,.86-2.17,0-1.07-.83-1.67-2.5-1.8l.64-2.17h8.46l-.66,2.17c-.89,.29-1.61,.72-2.18,1.31-.57,.59-1.59,2.05-3.08,4.39l-12.15,19.16h-3.98l.76-18.16-12.01,18.16h-3.91Z" fill="#fff"/><path d="M49.27,56.7l6.81-22.28c.16-.52,.23-.9,.23-1.13,0-.69-.8-1.04-2.4-1.04l.68-2.03c2.04,0,3.43-.03,4.17-.09s1.64-.21,2.7-.46h1.85l-4.76,15.62c2.46-3.48,5.14-5.21,8.05-5.21,1.08,0,1.89,.25,2.43,.75,.54,.5,.81,1.14,.81,1.9,0,.37-.07,.81-.2,1.35-.14,.54-.86,2.99-2.18,7.36-.34,1.12-.51,1.77-.51,1.93,0,.35,.16,.53,.49,.53s.66-.18,1.05-.55c.39-.36,.82-.91,1.29-1.64h2.27c-.82,1.62-1.9,2.9-3.23,3.85-1.33,.95-2.78,1.43-4.33,1.43-2.28,0-3.42-.92-3.42-2.77,0-.74,.54-2.77,1.62-6.07,.6-1.81,.9-2.92,.9-3.32,0-.56-.26-.84-.78-.84-.83,0-1.88,.91-3.15,2.73s-2.43,3.94-3.49,6.37l-1.11,3.61h-5.8Z" fill="#fff"/><path d="M73.83,49.96c0-1.37,.4-2.83,1.2-4.4,.8-1.57,2.06-2.87,3.77-3.92,1.71-1.04,3.75-1.56,6.1-1.56,2.93,0,5.08,.7,6.45,2.09,1.37,1.39,2.06,3.08,2.06,5.06,0,2.72-1.05,5.08-3.16,7.08s-4.8,3-8.08,3c-2.38,0-4.37-.6-5.96-1.81-1.59-1.21-2.38-3.05-2.38-5.54Zm5.72,1.97c0,1.16,.22,2.03,.65,2.61s1.09,.87,1.96,.87c1.61,0,2.93-1.22,3.95-3.65,1.02-2.43,1.53-4.49,1.53-6.17,0-1.28-.24-2.2-.73-2.77-.49-.57-1.05-.86-1.69-.86-1.72,0-3.09,1.28-4.13,3.83s-1.55,4.6-1.55,6.15Z" fill="#fff"/><path d="M115.21,51.97h1.97c-1.67,3.55-4,5.33-6.99,5.33-1.21,0-2.12-.25-2.73-.76-.61-.51-.92-1.26-.92-2.27,0-.59,.25-1.61,.76-3.09l2.34-6.74c.18-.52,.27-.86,.27-1.02s-.04-.27-.11-.34c-.07-.07-.19-.11-.34-.11-.66,0-1.45,.85-2.34,2.54h-1.87c1.68-3.63,4.05-5.45,7.11-5.45,1.08,0,1.92,.26,2.52,.79,.6,.53,.9,1.25,.9,2.18,0,.68-.27,1.75-.8,3.22l-2.27,6.17c-.33,.87-.49,1.42-.49,1.64,0,.14,.04,.25,.13,.33s.21,.12,.36,.12c.34,0,.77-.29,1.3-.88,.53-.59,.93-1.14,1.2-1.68Zm3.28-19.25c0,.83-.3,1.55-.9,2.15-.6,.6-1.31,.9-2.15,.9s-1.55-.3-2.15-.9c-.6-.6-.9-1.31-.9-2.15s.3-1.56,.9-2.16c.6-.59,1.31-.89,2.15-.89s1.55,.29,2.15,.89c.6,.59,.9,1.31,.9,2.16Z" fill="#fff"/><path d="M118.26,53.22c0-.65,.21-1.23,.63-1.75,.42-.51,1.04-.77,1.85-.77,1.46,0,2.34,.93,2.64,2.79,.21,1.38,1.16,2.07,2.85,2.07,.94,0,1.68-.19,2.23-.57s.82-.85,.82-1.41c0-.36-.15-.69-.45-.99-.3-.29-1.06-.83-2.28-1.61-1.86-1.16-3.1-2.13-3.72-2.92-.62-.79-.93-1.74-.93-2.86,0-1.52,.72-2.76,2.16-3.71,1.44-.95,3.49-1.42,6.16-1.42,2.24,0,3.87,.31,4.89,.95,1.02,.63,1.53,1.42,1.53,2.35,0,.66-.25,1.21-.74,1.63-.5,.42-1.05,.63-1.66,.63-1.34,0-2.13-.73-2.36-2.19-.18-1.12-.98-1.68-2.4-1.68-.85,0-1.48,.16-1.91,.47-.43,.31-.64,.78-.64,1.41,0,.38,.15,.71,.44,1.01s.99,.76,2.08,1.4c1.94,1.12,3.21,2.14,3.81,3.07,.6,.92,.9,1.83,.9,2.71,0,1.59-.75,2.9-2.25,3.94-1.5,1.04-3.61,1.55-6.35,1.55-2.17,0-3.93-.35-5.27-1.04-1.34-.69-2.01-1.71-2.01-3.07Z" fill="#fff"/><path d="M159.05,51.17h2.17c-.56,1.52-1.5,2.93-2.82,4.21-1.32,1.28-2.87,1.92-4.64,1.92-1.12,0-2.05-.3-2.8-.89-.75-.59-1.12-1.56-1.12-2.9,0-.86,.28-2.15,.84-3.87l2.07-6.78h-3.28l.66-2.17h3.28l1.79-5.96h5.82l-1.82,5.96h3.55l-.66,2.17h-3.55l-2.42,7.95c-.46,1.5-.68,2.4-.68,2.71,0,.29,.06,.5,.19,.64,.12,.14,.31,.21,.56,.21,.94,0,1.89-1.07,2.87-3.22Z" fill="#fff"/><path d="M162.6,56.7l6.81-22.28c.16-.52,.23-.9,.23-1.13,0-.69-.8-1.04-2.4-1.04l.68-2.03c2.04,0,3.43-.03,4.17-.09,.73-.06,1.64-.21,2.7-.46h1.86l-4.76,15.62c2.46-3.48,5.14-5.21,8.04-5.21,1.08,0,1.89,.25,2.43,.75,.54,.5,.81,1.14,.81,1.9,0,.37-.07,.81-.21,1.35-.14,.54-.86,2.99-2.18,7.36-.34,1.12-.51,1.77-.51,1.93,0,.35,.16,.53,.49,.53s.66-.18,1.05-.55c.39-.36,.82-.91,1.29-1.64h2.27c-.82,1.62-1.9,2.9-3.23,3.85-1.33,.95-2.78,1.43-4.32,1.43-2.28,0-3.42-.92-3.42-2.77,0-.74,.54-2.77,1.62-6.07,.6-1.81,.9-2.92,.9-3.32,0-.56-.26-.84-.78-.84-.83,0-1.88,.91-3.15,2.73-1.27,1.82-2.43,3.94-3.48,6.37l-1.11,3.61h-5.8Z" fill="#fff"/><path d="M197.46,52.95c-2.25,2.9-4.46,4.36-6.62,4.36-.95,0-1.79-.36-2.53-1.07-.74-.72-1.1-1.83-1.1-3.34,0-3.01,1.06-5.85,3.18-8.53,2.12-2.68,4.54-4.02,7.26-4.02,.85,0,1.51,.23,1.98,.69,.47,.46,.76,1.16,.87,2.1l.68-2.42h5.58l-3.52,11.48c-.22,.73-.33,1.14-.33,1.23,0,.37,.18,.55,.55,.55,.66,0,1.33-.59,1.99-1.78h2.17c-.6,1.59-1.53,2.84-2.79,3.75-1.26,.91-2.62,1.37-4.06,1.37-.98,0-1.8-.26-2.46-.77s-1-1.34-1-2.47c0-.3,.04-.67,.14-1.11Zm-4.38-.94c0,.52,.1,.92,.28,1.18,.19,.27,.47,.4,.85,.4,.59,0,1.27-.4,2.04-1.2s1.53-2.17,2.27-4.1c.73-1.93,1.1-3.34,1.1-4.23,0-.59-.11-1.02-.31-1.31-.21-.29-.52-.43-.94-.43-1.31,0-2.53,1.27-3.63,3.82-1.11,2.54-1.66,4.5-1.66,5.87Z" fill="#fff"/><path d="M219.48,51.17h2.17c-.56,1.52-1.5,2.93-2.82,4.21-1.32,1.28-2.87,1.92-4.64,1.92-1.12,0-2.05-.3-2.8-.89-.75-.59-1.12-1.56-1.12-2.9,0-.86,.28-2.15,.84-3.87l2.07-6.78h-3.28l.66-2.17h3.28l1.8-5.96h5.82l-1.82,5.96h3.55l-.66,2.17h-3.55l-2.42,7.95c-.46,1.5-.68,2.4-.68,2.71,0,.29,.06,.5,.19,.64,.12,.14,.31,.21,.56,.21,.94,0,1.89-1.07,2.87-3.22Z" fill="#fff"/><path d="M231.04,54.26c0,.83-.3,1.55-.91,2.15-.61,.6-1.32,.9-2.16,.9s-1.57-.3-2.17-.9-.9-1.31-.9-2.15,.3-1.57,.9-2.17,1.32-.9,2.17-.9,1.57,.3,2.17,.9,.9,1.32,.9,2.17Zm-2.3-6.01l2.01-6.72h.94c.08,.89,.43,1.33,1.05,1.33,.47,0,.88-.28,1.23-.85s.76-1.77,1.22-3.6c.46-1.84,.69-3.23,.69-4.2,0-.86-.12-1.5-.37-1.93-.25-.43-.62-.64-1.11-.64-.7,0-1.28,.44-1.74,1.33-.66,1.28-1.39,1.91-2.17,1.91-.44,0-.86-.19-1.24-.57-.38-.38-.57-.85-.57-1.43,0-.82,.47-1.56,1.42-2.21,.95-.66,2.18-.99,3.69-.99,2.24,0,4,.7,5.29,2.1,1.29,1.4,1.93,3.1,1.93,5.11,0,2.13-.72,3.97-2.18,5.52-1.45,1.54-3.17,2.31-5.16,2.31-.55,0-1.15-.07-1.8-.21l-1.13,3.75h-2.01Z" fill="#fff"/></g></svg>