<?xml version="1.0" encoding="utf-8"?>
<!-- Generator: Adobe Illustrator 26.4.1, SVG Export Plug-In . SVG Version: 6.00 Build 0)  -->
<svg version="1.1" id="a" xmlns="http://www.w3.org/2000/svg" xmlns:xlink="http://www.w3.org/1999/xlink" x="0px" y="0px"
	 viewBox="0 0 256 87" style="enable-background:new 0 0 256 87;" xml:space="preserve">
<style type="text/css">
	.st0{fill:#FFFFFF;}
	.st1{enable-background:new    ;}
</style>
<rect class="st0" width="256" height="87"/>
<g class="st1">
	<path d="M14.9,57.4l1.2-22.2c0-0.3,0-0.6,0-0.9c0-0.6-0.1-1-0.4-1.3c-0.2-0.3-0.8-0.6-1.8-0.6l0.7-2.2h11.5l-0.7,2.2
		c-1.1,0-1.8,0.2-2.3,0.6c-0.4,0.3-0.7,1.3-0.8,2.8l-0.7,13.4l12.5-19h3.4l-0.7,19l8-12.8c0.6-0.9,0.9-1.6,0.9-2.2
		c0-1.1-0.8-1.7-2.5-1.8l0.6-2.2h8.5l-0.7,2.2c-0.9,0.3-1.6,0.7-2.2,1.3c-0.6,0.6-1.6,2.1-3.1,4.4L34.2,57.4h-4L31,39.1L18.9,57.4
		H14.9z"/>
</g>
<g class="st1">
	<path d="M48.6,56.8l6.9-22.5c0.2-0.5,0.2-0.9,0.2-1.1c0-0.7-0.8-1-2.4-1l0.7-2c2.1,0,3.5,0,4.2-0.1c0.7-0.1,1.6-0.2,2.7-0.5h1.9
		L58,45.3c2.5-3.5,5.2-5.3,8.1-5.3c1.1,0,1.9,0.3,2.5,0.8s0.8,1.1,0.8,1.9c0,0.4-0.1,0.8-0.2,1.4c-0.1,0.5-0.9,3-2.2,7.4
		c-0.3,1.1-0.5,1.8-0.5,1.9c0,0.4,0.2,0.5,0.5,0.5c0.3,0,0.7-0.2,1.1-0.6c0.4-0.4,0.8-0.9,1.3-1.7h2.3c-0.8,1.6-1.9,2.9-3.3,3.9
		c-1.3,1-2.8,1.4-4.4,1.4c-2.3,0-3.4-0.9-3.4-2.8c0-0.7,0.5-2.8,1.6-6.1c0.6-1.8,0.9-2.9,0.9-3.3c0-0.6-0.3-0.8-0.8-0.8
		c-0.8,0-1.9,0.9-3.2,2.8c-1.3,1.8-2.5,4-3.5,6.4l-1.1,3.6H48.6z"/>
	<path d="M73.4,50c0-1.4,0.4-2.9,1.2-4.4c0.8-1.6,2.1-2.9,3.8-3.9c1.7-1,3.8-1.6,6.2-1.6c3,0,5.1,0.7,6.5,2.1
		c1.4,1.4,2.1,3.1,2.1,5.1c0,2.7-1.1,5.1-3.2,7.1c-2.1,2-4.8,3-8.1,3c-2.4,0-4.4-0.6-6-1.8C74.2,54.4,73.4,52.5,73.4,50z M79.2,52
		c0,1.2,0.2,2,0.7,2.6c0.4,0.6,1.1,0.9,2,0.9c1.6,0,3-1.2,4-3.7c1-2.5,1.5-4.5,1.5-6.2c0-1.3-0.2-2.2-0.7-2.8
		c-0.5-0.6-1.1-0.9-1.7-0.9c-1.7,0-3.1,1.3-4.2,3.9C79.7,48.4,79.2,50.4,79.2,52z"/>
	<path d="M115.1,52h2c-1.7,3.6-4,5.4-7,5.4c-1.2,0-2.1-0.3-2.8-0.8s-0.9-1.3-0.9-2.3c0-0.6,0.3-1.6,0.8-3.1l2.4-6.8
		c0.2-0.5,0.3-0.9,0.3-1s0-0.3-0.1-0.3s-0.2-0.1-0.3-0.1c-0.7,0-1.5,0.9-2.4,2.6h-1.9c1.7-3.7,4.1-5.5,7.2-5.5
		c1.1,0,1.9,0.3,2.5,0.8c0.6,0.5,0.9,1.3,0.9,2.2c0,0.7-0.3,1.8-0.8,3.2l-2.3,6.2c-0.3,0.9-0.5,1.4-0.5,1.7c0,0.1,0,0.3,0.1,0.3
		c0.1,0.1,0.2,0.1,0.4,0.1c0.3,0,0.8-0.3,1.3-0.9C114.4,53.1,114.8,52.6,115.1,52z M118.4,32.6c0,0.8-0.3,1.6-0.9,2.2
		s-1.3,0.9-2.2,0.9c-0.8,0-1.6-0.3-2.2-0.9c-0.6-0.6-0.9-1.3-0.9-2.2c0-0.9,0.3-1.6,0.9-2.2c0.6-0.6,1.3-0.9,2.2-0.9
		c0.8,0,1.6,0.3,2.2,0.9C118.1,31.1,118.4,31.8,118.4,32.6z"/>
	<path d="M118.2,53.3c0-0.7,0.2-1.2,0.6-1.8c0.4-0.5,1-0.8,1.9-0.8c1.5,0,2.4,0.9,2.7,2.8c0.2,1.4,1.2,2.1,2.9,2.1
		c0.9,0,1.7-0.2,2.2-0.6c0.6-0.4,0.8-0.9,0.8-1.4c0-0.4-0.2-0.7-0.5-1c-0.3-0.3-1.1-0.8-2.3-1.6c-1.9-1.2-3.1-2.1-3.7-2.9
		c-0.6-0.8-0.9-1.8-0.9-2.9c0-1.5,0.7-2.8,2.2-3.7c1.4-1,3.5-1.4,6.2-1.4c2.3,0,3.9,0.3,4.9,1c1,0.6,1.5,1.4,1.5,2.4
		c0,0.7-0.2,1.2-0.7,1.6c-0.5,0.4-1.1,0.6-1.7,0.6c-1.4,0-2.1-0.7-2.4-2.2c-0.2-1.1-1-1.7-2.4-1.7c-0.9,0-1.5,0.2-1.9,0.5
		c-0.4,0.3-0.6,0.8-0.6,1.4c0,0.4,0.1,0.7,0.4,1c0.3,0.3,1,0.8,2.1,1.4c2,1.1,3.2,2.2,3.8,3.1s0.9,1.8,0.9,2.7c0,1.6-0.8,2.9-2.3,4
		c-1.5,1-3.6,1.6-6.4,1.6c-2.2,0-4-0.3-5.3-1C118.8,55.7,118.2,54.7,118.2,53.3z"/>
	<path d="M159.3,51.2h2.2c-0.6,1.5-1.5,2.9-2.8,4.2c-1.3,1.3-2.9,1.9-4.7,1.9c-1.1,0-2.1-0.3-2.8-0.9c-0.8-0.6-1.1-1.6-1.1-2.9
		c0-0.9,0.3-2.2,0.8-3.9l2.1-6.8h-3.3l0.7-2.2h3.3l1.8-6h5.9l-1.8,6h3.6l-0.7,2.2h-3.6l-2.4,8c-0.5,1.5-0.7,2.4-0.7,2.7
		c0,0.3,0.1,0.5,0.2,0.6c0.1,0.1,0.3,0.2,0.6,0.2C157.3,54.5,158.3,53.4,159.3,51.2z"/>
	<path d="M162.9,56.8l6.9-22.5c0.2-0.5,0.2-0.9,0.2-1.1c0-0.7-0.8-1-2.4-1l0.7-2c2.1,0,3.5,0,4.2-0.1c0.7-0.1,1.7-0.2,2.7-0.5h1.9
		l-4.8,15.7c2.5-3.5,5.2-5.3,8.1-5.3c1.1,0,1.9,0.3,2.5,0.8c0.5,0.5,0.8,1.1,0.8,1.9c0,0.4-0.1,0.8-0.2,1.4c-0.1,0.5-0.9,3-2.2,7.4
		c-0.3,1.1-0.5,1.8-0.5,1.9c0,0.4,0.2,0.5,0.5,0.5c0.3,0,0.7-0.2,1.1-0.6c0.4-0.4,0.8-0.9,1.3-1.7h2.3c-0.8,1.6-1.9,2.9-3.3,3.9
		s-2.8,1.4-4.4,1.4c-2.3,0-3.4-0.9-3.4-2.8c0-0.7,0.5-2.8,1.6-6.1c0.6-1.8,0.9-2.9,0.9-3.3c0-0.6-0.3-0.8-0.8-0.8
		c-0.8,0-1.9,0.9-3.2,2.8c-1.3,1.8-2.5,4-3.5,6.4l-1.1,3.6H162.9z"/>
</g>
<g class="st1">
	<path d="M198,53c-2.3,2.9-4.5,4.4-6.7,4.4c-1,0-1.8-0.4-2.5-1.1s-1.1-1.8-1.1-3.4c0-3,1.1-5.9,3.2-8.6c2.1-2.7,4.6-4.1,7.3-4.1
		c0.9,0,1.5,0.2,2,0.7c0.5,0.5,0.8,1.2,0.9,2.1l0.7-2.4h5.6l-3.5,11.6c-0.2,0.7-0.3,1.1-0.3,1.2c0,0.4,0.2,0.6,0.6,0.6
		c0.7,0,1.3-0.6,2-1.8h2.2c-0.6,1.6-1.5,2.9-2.8,3.8s-2.6,1.4-4.1,1.4c-1,0-1.8-0.3-2.5-0.8c-0.7-0.5-1-1.3-1-2.5
		C197.9,53.9,197.9,53.5,198,53z M193.6,52.1c0,0.5,0.1,0.9,0.3,1.2c0.2,0.3,0.5,0.4,0.9,0.4c0.6,0,1.3-0.4,2.1-1.2
		c0.8-0.8,1.5-2.2,2.3-4.1c0.7-1.9,1.1-3.4,1.1-4.3c0-0.6-0.1-1-0.3-1.3c-0.2-0.3-0.5-0.4-0.9-0.4c-1.3,0-2.5,1.3-3.7,3.8
		C194.2,48.7,193.6,50.7,193.6,52.1z"/>
</g>
<g class="st1">
	<path d="M220.2,51.2h2.2c-0.6,1.5-1.5,2.9-2.8,4.2c-1.3,1.3-2.9,1.9-4.7,1.9c-1.1,0-2.1-0.3-2.8-0.9c-0.8-0.6-1.1-1.6-1.1-2.9
		c0-0.9,0.3-2.2,0.8-3.9l2.1-6.8h-3.3l0.7-2.2h3.3l1.8-6h5.9l-1.8,6h3.6l-0.7,2.2h-3.6l-2.4,8c-0.5,1.5-0.7,2.4-0.7,2.7
		c0,0.3,0.1,0.5,0.2,0.6c0.1,0.1,0.3,0.2,0.6,0.2C218.3,54.5,219.2,53.4,220.2,51.2z"/>
	<path d="M231.9,54.3c0,0.8-0.3,1.6-0.9,2.2s-1.3,0.9-2.2,0.9c-0.9,0-1.6-0.3-2.2-0.9c-0.6-0.6-0.9-1.3-0.9-2.2
		c0-0.9,0.3-1.6,0.9-2.2c0.6-0.6,1.3-0.9,2.2-0.9c0.9,0,1.6,0.3,2.2,0.9C231.6,52.8,231.9,53.5,231.9,54.3z M229.5,48.3l2-6.8h0.9
		c0.1,0.9,0.4,1.3,1.1,1.3c0.5,0,0.9-0.3,1.2-0.9c0.4-0.6,0.8-1.8,1.2-3.6c0.5-1.9,0.7-3.3,0.7-4.2c0-0.9-0.1-1.5-0.4-1.9
		c-0.2-0.4-0.6-0.6-1.1-0.6c-0.7,0-1.3,0.4-1.8,1.3c-0.7,1.3-1.4,1.9-2.2,1.9c-0.4,0-0.9-0.2-1.2-0.6c-0.4-0.4-0.6-0.9-0.6-1.4
		c0-0.8,0.5-1.6,1.4-2.2c1-0.7,2.2-1,3.7-1c2.3,0,4,0.7,5.3,2.1c1.3,1.4,1.9,3.1,1.9,5.1c0,2.2-0.7,4-2.2,5.6
		c-1.5,1.6-3.2,2.3-5.2,2.3c-0.6,0-1.2-0.1-1.8-0.2l-1.1,3.8H229.5z"/>
</g>
</svg>
