<svg xmlns="http://www.w3.org/2000/svg" viewBox="0 0 1125 782.83"><path d="M338,703.67c0-17.57,8.16-25.8,12.23-29.92,12.23-12.35,26.61-13.59,33.81-14.21v-.2a62.34,62.34,0,0,1-10.69-1A46.91,46.91,0,0,1,363,655.15a32,32,0,0,1-9.14-5.53,23.32,23.32,0,0,1-6.29-8.68,28,28,0,0,1-2.43-12.19,32.35,32.35,0,0,1,1.34-9.35,33.13,33.13,0,0,1,4.65-9.61,34.74,34.74,0,0,1,8.21-8.68A38.56,38.56,0,0,1,372.08,595a58.86,58.86,0,0,1,17.71-2.38c9.49,0,14.34,1.66,16.77,2.48,7.27,2.48,9.82,4.76,11.09,5.89a26.88,26.88,0,0,1,6.14,7.6c2.33,4.18,2.74,5.91,2.95,6.77a21.63,21.63,0,0,1,.62,5.37,14.46,14.46,0,0,1-3.93,10.54c-3.92,4.44-8.74,4.44-11.14,4.44-5.89,0-8.47-2.72-9.76-4.08a14.38,14.38,0,0,1-3.87-10.69c0-5.69,2.48-8.23,3.72-9.51a14.16,14.16,0,0,1,10.22-4.13l-.11-.42a13.52,13.52,0,0,0-7-6.09,25.84,25.84,0,0,0-11.31-2.28c-11.66,0-15.51,4.93-17.44,7.39C371,613.25,371,621.93,371,626.27c0,14.78,4.82,20.08,7.23,22.73,7.22,8,15.68,8,19.92,8h1.44v5.68h-1.86a34.82,34.82,0,0,0-12,1.76c-5.32,1.76-7.55,3.82-8.67,4.86a32.89,32.89,0,0,0-5.73,6.76,26.57,26.57,0,0,0-3.56,8.12,54.29,54.29,0,0,0-1.65,8.21,59.59,59.59,0,0,0-.47,7.8c0,19.53,5.44,26.45,8.16,29.92,8.15,10.38,18.68,10.38,23.94,10.38a40.82,40.82,0,0,0,8.88-1,39.43,39.43,0,0,0,10.32-4,35.12,35.12,0,0,0,10-7.65A36.73,36.73,0,0,0,434.27,715a51.79,51.79,0,0,0,3-18.6l-.1-5.68-4.23.1H412.18a41.44,41.44,0,0,0-8.87.73,21.52,21.52,0,0,0-5.68,1.65,7.24,7.24,0,0,0-3.05,2.43,7,7,0,0,0-1.34,2.53,9.46,9.46,0,0,0-.26,2.38c0,3.3,1.45,4.13,2.17,4.54h.31a8.37,8.37,0,0,1,4-3.51,10.79,10.79,0,0,1,4.95-1.24,11,11,0,0,1,7.9,2.79,9.62,9.62,0,0,1,3.25,8c0,4.95-2.31,7.06-3.46,8.11a11.14,11.14,0,0,1-8.2,3.15,15.17,15.17,0,0,1-11.36-4.6c-4.85-4.6-4.85-11.49-4.85-14.93a39.15,39.15,0,0,1,.21-4.24,31.92,31.92,0,0,1,1.18-5.42,23.69,23.69,0,0,1,2.64-6.1,30.17,30.17,0,0,1,12.54-10.9,48.89,48.89,0,0,1,11.25-3.46,73.94,73.94,0,0,1,15.33-1.4h20.74a42.62,42.62,0,0,0,8.88-.72,21.53,21.53,0,0,0,5.67-1.65,7.09,7.09,0,0,0,3-2.43,6.88,6.88,0,0,0,1.34-2.53,9.5,9.5,0,0,0,.26-2.38c0-3.31-1.45-4.13-2.17-4.55h-.31a8.44,8.44,0,0,1-4,3.52A11.72,11.72,0,0,1,451.46,659a9.63,9.63,0,0,1-3.25-8c0-5,2.3-7.06,3.45-8.11a11.16,11.16,0,0,1,8.21-3.15,15.1,15.1,0,0,1,11.35,4.6c4.85,4.59,4.85,11.48,4.85,14.93a29.94,29.94,0,0,1-.31,4.59,53.19,53.19,0,0,1-1.23,5.79,17.31,17.31,0,0,1-3.26,6.61,37,37,0,0,1-5.78,6,29.39,29.39,0,0,1-9.39,5.06,57.23,57.23,0,0,1-13.47,3c.31,3.41.31,5.47.31,6.51,0,10.95-2,16.94-2.94,19.94a43.22,43.22,0,0,1-8.88,15.91,37.27,37.27,0,0,1-15.84,10.75,61.19,61.19,0,0,1-22.91,3.82c-14.87,0-22.13-2.31-25.76-3.46-10.89-3.46-14.95-7.6-17-9.66a35.85,35.85,0,0,1-8.87-13.75A45.79,45.79,0,0,1,338,703.67Z" fill="#6dc7eb"/><path d="M285.8,634.67v-3.24l11.06-.72V536l-11.06-.72V532h67.9l.72,29.28h-4A48.71,48.71,0,0,0,348.67,551a24.53,24.53,0,0,0-3.7-7.85,14.38,14.38,0,0,0-6.79-5.35,26.52,26.52,0,0,0-10.49-1.8c-8.26,0-11,.48-12.43.72V581l2.08.07a40.85,40.85,0,0,0,8.05-.54,11.79,11.79,0,0,0,5.32-2.3A8.92,8.92,0,0,0,334,573a36.13,36.13,0,0,0,.94-9.2h3.95v38.62H335c0-9.85-2.16-12.39-3.24-13.66-3.23-3.82-8.26-3.82-10.77-3.82l-5.68.08v45.67l13.94.72v3.24Z"/><path d="M376.55,617.55c0,5.75,1.43,8.13,2.15,9.31a6.61,6.61,0,0,0,6.32,3.57c4.89,0,7.55-4.08,8.88-6.12a25.87,25.87,0,0,0,4-15v-9.93a34.55,34.55,0,0,0-4.67-.36,18.42,18.42,0,0,0-6.65,1,11.06,11.06,0,0,0-4.64,2.73,17.65,17.65,0,0,0-2.87,3.64,13,13,0,0,0-1.65,4.2,37.21,37.21,0,0,0-.68,3.82A24.56,24.56,0,0,0,376.55,617.55Zm-17.39,1.51a19.72,19.72,0,0,1,1.11-6.8A18.89,18.89,0,0,1,363.9,606a23.22,23.22,0,0,1,6.18-5.25,31.15,31.15,0,0,1,9.09-3.56,48.47,48.47,0,0,1,12-1.33c3.52,0,5.63.19,6.69.28v-9.92c0-4.75-.12-6.72-.18-7.7a35.26,35.26,0,0,0-.9-6.08,10.93,10.93,0,0,0-2.05-4.82,9.55,9.55,0,0,0-3.74-2.8,13.4,13.4,0,0,0-5.85-1.12c-10.49,0-13.7,5.52-15.31,8.27v.29a12.18,12.18,0,0,1,2.23-.21c3.74,0,5.17,1.53,5.89,2.3a9.17,9.17,0,0,1,2.16,6.62,8,8,0,0,1-2.59,6.29,8.41,8.41,0,0,1-6.46,2.55c-4.24,0-5.87-1.92-6.69-2.87a9.61,9.61,0,0,1-2.44-6.77c0-8.48,5.2-12.27,7.8-14.17a28.12,28.12,0,0,1,17.92-5.68c7.19,0,10.57,1,12.25,1.51,5.07,1.51,7.08,3.17,8.09,4a15.59,15.59,0,0,1,4.7,6.77A32.94,32.94,0,0,1,415,581.3a91.36,91.36,0,0,1,.54,10.93V631l7.4.72v2.95H400l-2-11.37h-.14c-3.52,6.84-6.85,9.07-8.52,10.18a20.43,20.43,0,0,1-12.11,3.35c-8.76,0-11.88-3.5-13.43-5.25A17.28,17.28,0,0,1,359.16,619.06Z"/><path d="M430.33,568.2v-3l15-1.58L455.48,561l1,2.09v9.71h.28c8.56-12.52,16.6-12.52,20.63-12.52a20.45,20.45,0,0,1,4.88.54,21.37,21.37,0,0,1,5,1.87,13.52,13.52,0,0,1,4.77,4.17,20.78,20.78,0,0,1,3.38,6.87h.15c9.62-13.45,18.15-13.45,22.41-13.45a23.16,23.16,0,0,1,4.89.47,16.89,16.89,0,0,1,5.14,2,15.63,15.63,0,0,1,4.77,4.1,20.53,20.53,0,0,1,3.38,7.08,35.87,35.87,0,0,1,1.37,10.61V631l7.4.72v2.95H512.53v-2.95l7.33-.72V582.09a27.79,27.79,0,0,0-.75-7.3,13.5,13.5,0,0,0-1.73-4.57,6.64,6.64,0,0,0-2.4-2.34,6.51,6.51,0,0,0-2.3-1,11,11,0,0,0-1.94-.15c-4.82,0-7.86,3.55-9.38,5.33-4.56,5.32-4.56,11.51-4.56,14.6V631l7.4.72v2.95H471.79v-2.95l7.33-.72V582.09a28.89,28.89,0,0,0-.72-7.3,13,13,0,0,0-1.69-4.57,6.64,6.64,0,0,0-2.37-2.34,6.11,6.11,0,0,0-2.26-1,11,11,0,0,0-1.94-.15c-4.6,0-7.52,4.13-9,6.19a24.63,24.63,0,0,0-4.39,15.18V631l7.41.72v2.95H431.77v-2.95l7.4-.72V568.2Z"/><path d="M572.52,598.13a105.8,105.8,0,0,0,.79,14.28,51.8,51.8,0,0,0,2.44,11.15c1.65,4.85,3.52,6.58,4.46,7.44a8.89,8.89,0,0,0,6.61,2.59c14.44,0,14.44-23.07,14.44-34.6a128.07,128.07,0,0,0-.68-15,47.87,47.87,0,0,0-2.3-11c-1.62-4.79-3.54-6.35-4.49-7.12a10.23,10.23,0,0,0-7-2.34,8.86,8.86,0,0,0-6.61,2.59,17.18,17.18,0,0,0-4.46,7.33,52.26,52.26,0,0,0-2.44,10.87A104.76,104.76,0,0,0,572.52,598.13Zm-18.4.86c0-10.86,2.81-16.76,4.21-19.71,4.2-8.85,9.25-12.23,11.78-13.92a28.55,28.55,0,0,1,17.14-5.07c7.9,0,12.14,2.18,14.26,3.27a25.88,25.88,0,0,1,10.2,8.74,40.35,40.35,0,0,1,5.9,12.2,45.43,45.43,0,0,1,2,14.06c0,10.57-2.68,16.38-4,19.28-4,8.7-9,12.13-11.53,13.84a27.79,27.79,0,0,1-17,5.15c-8.4,0-12.69-2-14.83-3a24.67,24.67,0,0,1-10.35-8.27,35.49,35.49,0,0,1-5.86-12A49.86,49.86,0,0,1,554.12,599Z"/><path d="M627.85,568.2v-3l15-1.58L653,561l1.37,2.09V615a23.28,23.28,0,0,0,.89,7.27,12.36,12.36,0,0,0,2,4.49,7.14,7.14,0,0,0,2.8,2.3,7.72,7.72,0,0,0,2.62.94,17.29,17.29,0,0,0,2.08.11c5,0,7.84-4.25,9.24-6.37a26.84,26.84,0,0,0,4.2-15.64V568.2h-8.84v-3l15-1.58L694.53,561l1.3,2.09V631l7.4.72v2.95H680.66l-2.15-11.08h-.29a46.75,46.75,0,0,1-3.52,4.64,40.38,40.38,0,0,1-4.17,4.1,16.6,16.6,0,0,1-5.78,3.35,19.89,19.89,0,0,1-7,1.15,27.45,27.45,0,0,1-5-.43,21.24,21.24,0,0,1-5.49-1.91,15.42,15.42,0,0,1-5.25-4,20.23,20.23,0,0,1-3.73-7A31.38,31.38,0,0,1,636.69,613V568.2Z"/><path d="M737.56,633.3c8.19,0,10.8-2,12.1-3,3.92-3,3.92-6,3.92-7.55a9.88,9.88,0,0,0-.76-4.21,10.45,10.45,0,0,0-2.44-3.52,26.06,26.06,0,0,0-4.45-3.46c-2.77-1.76-5.5-3.25-6.87-4-3.59-2.09-6.27-3.6-7.61-4.35A41.78,41.78,0,0,1,724,598a25.39,25.39,0,0,1-5.67-6.94,18.14,18.14,0,0,1-2.27-9.5,19,19,0,0,1,1.87-8.85,18.24,18.24,0,0,1,5.21-6.72,22.77,22.77,0,0,1,8-4.28,31.14,31.14,0,0,1,10.16-1.51,32.57,32.57,0,0,1,8.37,1,24.17,24.17,0,0,1,7.58,3.13,16.33,16.33,0,0,1,5.46,5.18,11.94,11.94,0,0,1,2.09,7.19,8.56,8.56,0,0,1-.54,3.09,7.82,7.82,0,0,1-1.62,2.74,8,8,0,0,1-2.62,2,7.73,7.73,0,0,1-3.56.75c-4.16,0-5.55-1.53-6.25-2.3a7.68,7.68,0,0,1-2.08-5.61,8.91,8.91,0,0,1,.57-3.56,6.46,6.46,0,0,1,1.55-2.45,5.83,5.83,0,0,1,2.23-1.44,6.87,6.87,0,0,1,2.55-.46h.64v-.15a8.32,8.32,0,0,0-2.08-2.19,15.35,15.35,0,0,0-3.23-1.87,21,21,0,0,0-4.17-1.33,21.43,21.43,0,0,0-4.89-.51,16.53,16.53,0,0,0-6.46,1,12.31,12.31,0,0,0-4.35,2.55,9.08,9.08,0,0,0-2.48,3.42,8.48,8.48,0,0,0-.79,3.6,8.16,8.16,0,0,0,.65,3.59,9.11,9.11,0,0,0,2.26,3.06,29,29,0,0,0,4.45,3.35c2.84,1.79,5.72,3.47,7.15,4.31,4.17,2.16,7.26,3.79,8.81,4.61a46.76,46.76,0,0,1,8.51,5.64,27.66,27.66,0,0,1,6.43,7.34,17.31,17.31,0,0,1,2.55,9.68,19,19,0,0,1-1.76,8.56,16.45,16.45,0,0,1-5.46,6.68,26.45,26.45,0,0,1-9.41,4.36,51.08,51.08,0,0,1-13.55,1.54,35.65,35.65,0,0,1-8-.93,25.69,25.69,0,0,1-7.83-3,17.52,17.52,0,0,1-6-5.32,12.81,12.81,0,0,1-2.37-8,10.9,10.9,0,0,1,.65-3.88,10,10,0,0,1,1.83-3.35A8.48,8.48,0,0,1,723,609a7.59,7.59,0,0,1,3.45.68,7.74,7.74,0,0,1,4.17,4.43,9.65,9.65,0,0,1,.64,3.23,7.67,7.67,0,0,1-.71,3.56,7.13,7.13,0,0,1-1.87,2.56,8.66,8.66,0,0,1-5.53,2.08h-.62a2.14,2.14,0,0,1-.61-.07v.15a9.9,9.9,0,0,0,1.94,2.8,12.64,12.64,0,0,0,3.27,2.45,19.59,19.59,0,0,0,4.6,1.76A22.05,22.05,0,0,0,737.56,633.3Z"/><path d="M476.25,698a66.18,66.18,0,0,1,1.69-15.22,58.59,58.59,0,0,1,5.46-15,52.75,52.75,0,0,1,9.12-13.06,38.33,38.33,0,0,1,13.4-9.17,41.83,41.83,0,0,1,17.68-3.49c14.51,0,20.86,4.13,24,6.19,9.52,6.19,9.52,11.8,9.52,14.6a10.34,10.34,0,0,1-2.87,7.7,9.79,9.79,0,0,1-7.9,3.17c-4.67,0-6.64-2-7.62-2.92a9.46,9.46,0,0,1-3-7.37c0-4.89,2.06-6.74,3.09-7.66a11,11,0,0,1,7.91-2.77v-.29c-1.58-1.87-5-3.36-6.72-4.1a29.47,29.47,0,0,0-12.18-2.23c-10.13,0-15.07,4.2-17.53,6.29A37.34,37.34,0,0,0,499.17,670a75.91,75.91,0,0,0-3.81,25.6c0,5,.22,8,.32,9.57a85.77,85.77,0,0,0,1.26,9.71,61.57,61.57,0,0,0,2.41,9.43,39.37,39.37,0,0,0,3.91,8.3,26.61,26.61,0,0,0,5.68,6.8,23.22,23.22,0,0,0,7.83,4.46,28.31,28.31,0,0,0,10.13,1.66,44.25,44.25,0,0,0,13.37-2.16V704.2l-10.64-.79v-3.23h37.66v3.23l-10.57.79v38.13a50.13,50.13,0,0,1-15.16,5.47A83.88,83.88,0,0,1,523,749.74C476.25,749.74,476.25,715.26,476.25,698Z"/><path d="M574.4,680.75v-2.94l15-1.59,10.14-2.66,1,2.09V688h.29a33.65,33.65,0,0,1,3.52-5.61,29.85,29.85,0,0,1,4.56-4.86,21.28,21.28,0,0,1,5.28-3.41,12.47,12.47,0,0,1,5.68-1.3c5.6,0,7.64,2,8.66,3a10.23,10.23,0,0,1,3.05,7.95,10.37,10.37,0,0,1-.64,3.84,8.38,8.38,0,0,1-1.84,3.06,8,8,0,0,1-2.87,2.05,8.47,8.47,0,0,1-3.7.76,9.16,9.16,0,0,1-3.88-.72,8.41,8.41,0,0,1-4.74-4.79,8.74,8.74,0,0,1-.65-3.48c0-3.82,1.05-5,1.58-5.62v-.43a11.3,11.3,0,0,0-5.07,2.74,20.22,20.22,0,0,0-4.49,5.86,34.73,34.73,0,0,0-3.23,8.92,49.86,49.86,0,0,0-1.22,11.76v35.82l7.4.72v3H575.83v-3l7.41-.72v-62.8Z"/><path d="M694.19,743.56V704.78c0-1.47,0-4-.19-6.77a40.5,40.5,0,0,0-.32-4.15,33,33,0,0,0-2.25-8.76,15.15,15.15,0,0,0-4.7-6.74c-1-.82-3-2.48-8.06-4-1.71-.5-5.07-1.52-12.25-1.52a28.23,28.23,0,0,0-18,5.67c-2.58,1.94-7.79,5.72-7.79,14.2a9.52,9.52,0,0,0,2.44,6.74c.83,1,2.44,2.9,6.68,2.9a8.46,8.46,0,0,0,6.49-2.58,8,8,0,0,0,2.58-6.27,9.22,9.22,0,0,0-2.16-6.64c-.74-.74-2.16-2.26-5.9-2.26a13.82,13.82,0,0,0-2.21.18v-.27c1.57-2.77,4.79-8.26,15.29-8.26a13.46,13.46,0,0,1,5.85,1.11,9.62,9.62,0,0,1,3.73,2.81c.46.56,1.34,1.66,2.08,4.8a37.65,37.65,0,0,1,.87,6.08c.05,1,.18,3,.18,7.7v9.92c-1.05-.1-3.17-.28-6.67-.28a47.89,47.89,0,0,0-12,1.34,30.39,30.39,0,0,0-9.12,3.55,23.45,23.45,0,0,0-6.17,5.25,18.83,18.83,0,0,0-3.64,6.27,19.89,19.89,0,0,0-1.11,6.83,17.17,17.17,0,0,0,4.7,12.49,12.79,12.79,0,0,0,6.49,4.29,21.84,21.84,0,0,0,6.91,1,20.55,20.55,0,0,0,12.12-3.32c1.65-1.15,5-3.37,8.51-10.19h.14l2,11.34H701.6v-3Zm-17.6-21.67a25.9,25.9,0,0,1-4,15c-1.29,2-4,6.09-8.84,6.09a6.67,6.67,0,0,1-6.36-3.55,13,13,0,0,1-.87-1.71,19.56,19.56,0,0,1-1.25-7.6,23.53,23.53,0,0,1,.19-3.09,26.3,26.3,0,0,1,.64-3.83,13.58,13.58,0,0,1,1.66-4.2,18.81,18.81,0,0,1,2.9-3.64,11,11,0,0,1,4.61-2.72,19.06,19.06,0,0,1,6.67-1,33.06,33.06,0,0,1,4.65.37Z"/><polygon points="701.67 677.95 701.67 675 735.66 675 735.66 677.95 727.9 678.74 744.86 724.06 745.14 724.06 760.66 678.74 752.76 677.95 752.76 675 772.45 675 772.45 677.95 764.98 678.74 740.9 747.94 737.6 747.94 708.79 678.74 701.67 677.95"/><path d="M777.45,772.18a9.64,9.64,0,0,1,2.55-7.12,7.78,7.78,0,0,1,6.43-2.88c4.16,0,5.58,1.73,6.28,2.59a9.38,9.38,0,0,1,2.12,6.4,8.74,8.74,0,0,1-.89,3.46,6.52,6.52,0,0,1-2.34,3v.29a7.72,7.72,0,0,0,4.74-1.77,15.34,15.34,0,0,0,4-4.85A52.08,52.08,0,0,0,803.1,766c.93-2.15,1.75-4.31,2.15-5.39l3.24-10.93L778,678.74l-7.11-.79v-3h34v3l-7.76.79,18.68,46.9,14.09-46.9-7.91-.79v-3h19.55v3l-7.48.79-23.85,80.85A73.47,73.47,0,0,1,805,771.82c-2.66,4.89-4.46,6.4-5.36,7.16a14,14,0,0,1-10.09,3.85c-5.39,0-7.62-2-8.73-3A9.35,9.35,0,0,1,777.45,772.18Z"/><path d="M517.68,490.22H534.3v4H522.14v8.7H534.3v4H522.14V521.4h-4.46Z"/><path d="M542.88,500.87v4.71l.22-.36c2-3.17,3.93-4.75,5.89-4.75a7.27,7.27,0,0,1,4.8,2.32l-2.14,3.57a6,6,0,0,0-3.93-2,4.21,4.21,0,0,0-3.4,1.88,7.08,7.08,0,0,0-1.44,4.44V521.4h-4.09V500.87Z"/><path d="M565.31,500.83a10.7,10.7,0,0,1,7.79,3,10.21,10.21,0,0,1,3.1,7.6,9.67,9.67,0,0,1-3.15,7.38,11.19,11.19,0,0,1-7.92,2.93,10.68,10.68,0,0,1-7.72-3,10.5,10.5,0,0,1,0-14.95A10.92,10.92,0,0,1,565.31,500.83Zm-.23,3.66a6.42,6.42,0,0,0-4.8,1.92,6.7,6.7,0,0,0-1.87,4.88,6.4,6.4,0,0,0,1.92,4.81,6.75,6.75,0,0,0,4.93,1.87,6.66,6.66,0,0,0,4.9-1.89,6.52,6.52,0,0,0,1.91-4.83,6.42,6.42,0,0,0-2-4.84A6.9,6.9,0,0,0,565.08,504.49Z"/><path d="M597.54,506.49V521.4h-4.09V510c0-2.28-.3-3.87-.91-4.77a3.59,3.59,0,0,0-3.2-1.35,4.77,4.77,0,0,0-2.33.58,10.55,10.55,0,0,0-2.42,2.05V521.4h-4.06V500.87h4.06v2.7q3.1-3.1,6.07-3.1a6.66,6.66,0,0,1,6.05,3.7q3.25-3.75,6.81-3.75a6.28,6.28,0,0,1,4.92,2.19q1.93,2.19,1.93,6.67V521.4h-4.06V509.24a6.34,6.34,0,0,0-1-3.93,3.6,3.6,0,0,0-3-1.36A6.22,6.22,0,0,0,597.54,506.49Z"/><polygon points="783.51 438.11 0 438.11 0 0 345.41 0 783.51 438.11" fill="#242424"/><polygon points="1125 0 1125 438.11 783.51 438.11 345.41 0 1125 0" fill="#00c027"/><path d="M168.15,203.41q0,14.61-5.32,23.47a50.26,50.26,0,0,1-12.52,14.34q-10.23,8-28.62,8H70.36V154.14h39.53a108.9,108.9,0,0,1,15.27.92,67.57,67.57,0,0,1,11.42,2.61,45.52,45.52,0,0,1,8.65,3.77,44.47,44.47,0,0,1,6.38,4.5,43.71,43.71,0,0,1,8.55,9.4A46.29,46.29,0,0,1,166,187.9,53.35,53.35,0,0,1,168.15,203.41ZM139,202.17q0-11.59-4.43-18.08a21.68,21.68,0,0,0-10.64-8.68,37.82,37.82,0,0,0-12.66-2.2H99.05v56.34h12.21a34.93,34.93,0,0,0,19.49-5.35Q139,218.85,139,202.17Z" fill="#fff"/><path d="M253.45,220.29h-49.2a17.2,17.2,0,0,0,7.07,10.43,21.29,21.29,0,0,0,12.76,4.05q12.49,0,27.59-7v15.3a76.12,76.12,0,0,1-13.14,5.12q-7.72,2.3-19.67,2.3-12.9,0-22-4.81a32.08,32.08,0,0,1-13.56-13A38.38,38.38,0,0,1,178.86,214a37.51,37.51,0,0,1,4.49-18.43,31.2,31.2,0,0,1,13.56-12.76q9-4.64,22-4.63a38.63,38.63,0,0,1,16.44,3.67,30,30,0,0,1,13,12q5.11,8.32,5.11,21.51Zm-23.19-12.22q0-6.72-3.33-10.74t-9.57-4a13,13,0,0,0-10,4.08,15,15,0,0,0-3.81,10.67Z" fill="#fff"/><path d="M338.07,245.75q-5.43,2.13-10,3.43A40.87,40.87,0,0,1,317,250.49c-4.07,0-6.91-.73-8.51-2.17a12,12,0,0,1-3.43-5.25,37.58,37.58,0,0,1-8.85,5.32q-4.87,2.1-12.77,2.1-7.62,0-12.32-2.65a15.17,15.17,0,0,1-6.59-6.65,19.38,19.38,0,0,1-1.88-8.27,16.89,16.89,0,0,1,3.26-10.67,24.1,24.1,0,0,1,8.75-6.9,111.3,111.3,0,0,1,14.55-5.56l7.78-2.5c1.77-.58,3.08-1,3.95-1.34a23,23,0,0,0,2.75-1.24c0-3.38-.69-6-2.06-8s-4.35-2.88-8.92-2.88a32.34,32.34,0,0,0-15,3.57,52.56,52.56,0,0,0-12.7,9.19V187.69a45.47,45.47,0,0,1,9.95-5.38,58.59,58.59,0,0,1,11.19-3.13,68.37,68.37,0,0,1,11.8-1q15.16,0,22.82,5.86t7.65,16.16v27a17.06,17.06,0,0,0,.72,5.73,2.64,2.64,0,0,0,2.64,1.89,15.36,15.36,0,0,0,6.32-2Zm-34.38-13.38V215.83a68.25,68.25,0,0,0-12.84,6.42A9,9,0,0,0,286.8,230a6.9,6.9,0,0,0,2,5.35,6.78,6.78,0,0,0,4.7,1.85,10.28,10.28,0,0,0,5-1.4A44,44,0,0,0,303.69,232.37Z" fill="#fff"/><path d="M419.73,249.25H395v-6.31a40.73,40.73,0,0,1-8.27,5.42q-4.37,2.13-12.05,2.13a32.39,32.39,0,0,1-15-3.78,29.87,29.87,0,0,1-12.07-11.77q-4.74-8-4.74-20.14a45,45,0,0,1,3.57-17.88,31,31,0,0,1,11.18-13.55q7.62-5.22,18.67-5.21a34.19,34.19,0,0,1,11.12,1.5,31,31,0,0,1,7.55,3.85V154.14h24.77ZM395,227v-26.7c-2.89-1.6-5.14-2.75-6.76-3.43a14.62,14.62,0,0,0-5.73-1,11.88,11.88,0,0,0-9.71,4.94q-3.88,4.94-3.88,13.45,0,9.27,4.08,13.49a12.84,12.84,0,0,0,9.51,4.22,15.79,15.79,0,0,0,7.2-1.41A29.19,29.19,0,0,0,395,227Z" fill="#fff"/><path d="M810.27,251H780.9l-7.75-19.28H731.83L723.94,251H694.57l42.07-95.12h31.7Zm-43.71-35.82-13.93-34.73-14.07,34.73Z" fill="#fff"/><path d="M844.86,251H820.09V155.85h24.77Z" fill="#fff"/><path d="M887.89,251H863.11V181.11h24.78Zm-2-86a9.87,9.87,0,0,1-3.09,7.34A10.55,10.55,0,0,1,870.22,174a10,10,0,0,1-3.74-3.74,10.53,10.53,0,0,1,1.64-12.59,9.9,9.9,0,0,1,7.35-3.09A10.55,10.55,0,0,1,885.9,165Z" fill="#fff"/><path d="M978.54,181.11,946.77,251H928.51l-31.08-69.86H924l14.48,36.58,16.06-36.58Z" fill="#fff"/><path d="M1056.5,222h-49.21a17.24,17.24,0,0,0,7.07,10.43,21.32,21.32,0,0,0,12.77,4.05q12.48,0,27.58-7v15.3a75.48,75.48,0,0,1-13.14,5.12q-7.72,2.29-19.66,2.29-12.9,0-22-4.8a32,32,0,0,1-13.55-13,38.27,38.27,0,0,1-4.5-18.66,37.4,37.4,0,0,1,4.5-18.43A31.13,31.13,0,0,1,1000,184.51q9.06-4.63,22-4.64a38.84,38.84,0,0,1,16.44,3.67,30.1,30.1,0,0,1,13,12q5.11,8.34,5.12,21.52Zm-23.2-12.22q0-6.72-3.33-10.74t-9.57-4a13,13,0,0,0-10,4.08,15,15,0,0,0-3.81,10.67Z" fill="#fff"/><path d="M492,223.3q0-7.29,4.27-15.65a34.85,34.85,0,0,1,13.4-13.92q9.12-5.56,21.69-5.56,15.63,0,22.95,7.43a24.68,24.68,0,0,1,7.32,18q0,14.5-11.25,25.17T521.62,249.4q-12.71,0-21.17-6.42T492,223.3Zm20.34,7q0,6.18,2.33,9.27t7,3.09q8.61,0,14.06-13t5.45-21.94q0-6.81-2.6-9.86a7.75,7.75,0,0,0-6-3q-9.16,0-14.68,13.6T512.32,230.31Z" fill="#fff"/><path d="M571.75,247.25,584,207.19a22.29,22.29,0,0,0,1.25-5.76,1.9,1.9,0,0,0-2.15-2.15q-4.92,0-10.2,9.51H566.4q5.69-10.33,13.4-15.48t15-5.14a8.25,8.25,0,0,1,6.63,2.71,10.27,10.27,0,0,1,2.33,6.94q0,4.59-3.89,18.75,15.63-28.4,27.35-28.4a8.07,8.07,0,0,1,5.83,2.26,8.25,8.25,0,0,1,2.37,6.28,14.52,14.52,0,0,1-2.78,8.71,8.23,8.23,0,0,1-6.87,3.86,6,6,0,0,1-5.42-3c-1-1.43-1.92-2.15-2.85-2.15q-4.79,0-13,15.13a130.94,130.94,0,0,0-11.73,28Z" fill="#fff"/></svg>