<svg xmlns="http://www.w3.org/2000/svg" viewBox="0 0 256 87"><rect width="256" height="87" fill="#83c6e7"/><path d="M78.85,28.72,72.91,48.11a9.76,9.76,0,0,0-.5,2.7c0,1.95,1.52,3,4.57,3.25l-1,3.28H62.42l1-3.28a6.75,6.75,0,0,0,4.71-3.25,24.2,24.2,0,0,0,1.5-4.13l7-22.85c-.71-2-2.28-3-4.72-3h-1l1-3.25H84L97.69,45.74l5.77-18.87a9.13,9.13,0,0,0,.44-2.52q0-3.17-4.57-3.48l1-3.25h13.74l-1,3.25a6.39,6.39,0,0,0-3.84,1.92,11.34,11.34,0,0,0-2.08,4.14L97.69,57.78H93.21Z" fill="#fff"/><path d="M119.37,48.29a6.85,6.85,0,0,0-.26,1.79,5.27,5.27,0,0,0,1,3.48,3.72,3.72,0,0,0,3,1.18,8.51,8.51,0,0,0,4.12-1.16,17.62,17.62,0,0,0,4.26-3.47h3.9a19,19,0,0,1-6.52,5.8,18.3,18.3,0,0,1-9.1,2.34,12.07,12.07,0,0,1-7-1.87A6.57,6.57,0,0,1,110,50.55q0-6.42,6.26-12.28T130,32.41a8.13,8.13,0,0,1,4.86,1.2,4.22,4.22,0,0,1,1.61,3.61c0,2.53-1.57,4.83-4.72,6.87A31,31,0,0,1,119.37,48.29Zm.67-3.08a11.89,11.89,0,0,0,6.39-3.07c1.88-1.7,2.81-3.37,2.81-5a1.84,1.84,0,0,0-.44-1.36,1.71,1.71,0,0,0-1.31-.46q-2.08,0-4.08,2.64A23.21,23.21,0,0,0,120,45.21Z" fill="#fff"/><path d="M151.19,49.67l-5,5.21q-3.26,3.4-5.77,3.4c-1.92,0-2.87-1.14-2.87-3.43a16.45,16.45,0,0,1,1-5h3.52A12.35,12.35,0,0,0,141,53.36c0,.64.25,1,.73,1s1-.44,1.88-1.34l6.53-6.83-1.75-5.68c-.57-1.8-1.16-2.7-1.76-2.7q-1.5,0-2.67,3.9h-2.9a15.4,15.4,0,0,1,3.78-6.83,7.77,7.77,0,0,1,5.54-2.43,5.1,5.1,0,0,1,3.18,1.19q1.5,1.18,3,5.52a41.17,41.17,0,0,1,5.77-5.55,5.94,5.94,0,0,1,3.25-1.16c2.33,0,3.49,1.48,3.49,4.42a12,12,0,0,1-.47,3.14h-3.49a9.47,9.47,0,0,0,.8-3.22c0-.9-.27-1.35-.8-1.35-.37,0-1.23.64-2.59,1.92s-3,3-4.91,5.23L160,50.14a13.31,13.31,0,0,0,.91,2.41,1,1,0,0,0,.85.54c1,0,2-1.32,2.78-4h2.9a15.39,15.39,0,0,1-3.82,6.75A7.9,7.9,0,0,1,158,58.28a4.75,4.75,0,0,1-2.86-.86,5.43,5.43,0,0,1-1.76-2.1Q152.77,54.09,151.19,49.67Z" fill="#fff"/><path d="M188,49.05h3.26A16.91,16.91,0,0,1,187,55.37a9.68,9.68,0,0,1-7,2.88,6.54,6.54,0,0,1-4.2-1.33,5.23,5.23,0,0,1-1.68-4.35,20.8,20.8,0,0,1,1.26-5.8l3.1-10.17h-4.92l1-3.25h4.93l2.69-8.94H191l-2.72,8.94h5.33l-1,3.25h-5.33l-3.63,11.92a23.45,23.45,0,0,0-1,4.08,1.45,1.45,0,0,0,.28,1,1,1,0,0,0,.84.33C185.11,53.89,186.55,52.27,188,49.05Z" fill="#fff"/></svg>