<svg xmlns="http://www.w3.org/2000/svg" viewBox="0 0 256 87"><rect width="256" height="87" fill="#83c6e7"/><path d="M85.64,39.68l-2.73,9a12.05,12.05,0,0,0-.61,2.64q0,2.68,4.36,2.69l-1,3.28H67l1-3.28a4.83,4.83,0,0,0,2.9-.86c.68-.54,1.35-1.84,2-3.91l7.39-24.23a6.11,6.11,0,0,0,.29-1.5q0-2.68-4-2.69l1-3.25H92.78a38.21,38.21,0,0,1,9,.85,9.63,9.63,0,0,1,5.4,3.37,9.08,9.08,0,0,1,2,5.83,10.85,10.85,0,0,1-4.12,8.42Q101,39.67,91,39.68Zm1-3.23h2.79c3.39,0,5.86-1.05,7.39-3.16a11.41,11.41,0,0,0,2.3-6.88,5.14,5.14,0,0,0-1.62-4.16,7.45,7.45,0,0,0-4.91-1.38h-1.2Z" fill="#fff"/><path d="M120.21,50.43h3A13.5,13.5,0,0,1,118.89,56a10.83,10.83,0,0,1-6.8,2.28,6.38,6.38,0,0,1-4-1.13,3.68,3.68,0,0,1-1.45-3.06,31.16,31.16,0,0,1,1.17-4.89l7.56-24.73a10.1,10.1,0,0,0,.53-2.22c0-1-1.17-1.56-3.52-1.56l.91-3a46.17,46.17,0,0,0,10.34-.82h2.79L116,50.9a9.13,9.13,0,0,0-.47,1.9c0,.63.36.94,1.08.94Q118.34,53.74,120.21,50.43Z" fill="#fff"/><path d="M141.51,51.72q-5.07,6.53-9.94,6.53a5.3,5.3,0,0,1-3.79-1.61c-1.1-1.07-1.66-2.74-1.66-5a20.32,20.32,0,0,1,4.78-12.8q4.77-6,10.9-6a4.09,4.09,0,0,1,3,1A5,5,0,0,1,146.08,37l1-3.63h8.38l-5.27,17.23a13,13,0,0,0-.5,1.84.72.72,0,0,0,.82.82c1,0,2-.89,3-2.66h3.25a12,12,0,0,1-4.19,5.62,10.2,10.2,0,0,1-6.09,2,5.82,5.82,0,0,1-3.7-1.16,4.4,4.4,0,0,1-1.49-3.7A8.32,8.32,0,0,1,141.51,51.72Zm-6.57-1.41a3,3,0,0,0,.43,1.77,1.45,1.45,0,0,0,1.27.6q1.32,0,3.06-1.8a18.35,18.35,0,0,0,3.4-6.15,20.41,20.41,0,0,0,1.66-6.34,3.39,3.39,0,0,0-.47-2,1.64,1.64,0,0,0-1.41-.64q-3,0-5.45,5.73T134.94,50.31Z" fill="#fff"/><path d="M175.2,56.14q7.29-7.53,7.29-13a9,9,0,0,0-1.05-3.69,10.27,10.27,0,0,1-1.23-4,2.68,2.68,0,0,1,1-2.14,3.36,3.36,0,0,1,2.2-.82,3.75,3.75,0,0,1,2.9,1.35,5.78,5.78,0,0,1,1.2,4,21.63,21.63,0,0,1-2.17,8.81,42.48,42.48,0,0,1-6.91,10.24,68.69,68.69,0,0,1-9,8.74,32.44,32.44,0,0,1-9,5.07,24.09,24.09,0,0,1-7.75,1.74,5.71,5.71,0,0,1-3.27-1A3,3,0,0,1,148,68.74a3.25,3.25,0,0,1,1.17-2.53,4.18,4.18,0,0,1,2.9-1,9.27,9.27,0,0,1,4.63,1.58,6.22,6.22,0,0,0,2.9,1,6.09,6.09,0,0,0,4.06-2,9.75,9.75,0,0,0,2.81-5,38.94,38.94,0,0,0,.72-8.47,62.36,62.36,0,0,0-.75-11.28c-.5-2.5-1.24-3.75-2.24-3.75-.66,0-1.25.47-1.77,1.4a7.87,7.87,0,0,0-.87,3.56h-2.87A12,12,0,0,1,161.4,35a7.46,7.46,0,0,1,5.71-2.56c2.81,0,4.92,1.43,6.31,4.28s2.1,7.14,2.1,12.86A57,57,0,0,1,175.2,56.14Z" fill="#fff"/></svg>