<svg xmlns="http://www.w3.org/2000/svg" viewBox="0 0 660 659.52"><path d="M660,26.85v605.3A26.93,26.93,0,0,1,633.15,659H27.85l-.52,0-.73,0A26.93,26.93,0,0,1,1.41,636.78,26.14,26.14,0,0,1,1,632.15V26.85A26.93,26.93,0,0,1,27.85,0h605.3A26.93,26.93,0,0,1,660,26.85Z" fill="#6dc7eb"/><path d="M660,133.72v59.42l-.41-.07c-.59-.12-1.19-.22-1.79-.32l-2.16-.37-2.92-.47c-1.69-.27-3.38-.52-5.06-.75-2.41-.34-4.82-.65-7.21-.92l-2.34-.26-.92-.1-1.12-.11-1.66-.16c-2.21-.21-4.42-.39-6.61-.54l-2.84-.19c-.35,0-.71,0-1.06-.06l-2.66-.14-3.26-.14q-7.29-.25-14.44-.13l-2,0-.75,0-3.88.14c-1.37.06-2.74.13-4.1.22q-1.65.09-3.3.21l-1.82.14-2.27.19c-1,.08-2,.18-2.93.28a5.51,5.51,0,0,0-.57.06c-1.09.1-2.18.22-3.27.35l-3.58.44q-4.54.6-9,1.35l-1.52.26h0c-1.56.27-3.12.56-4.66.86l-2.33.47c-1.55.31-3.1.65-4.64,1s-3,.71-4.56,1.08c-1,.24-1.93.48-2.88.74l-1.58.41-1.86.51-1.12.31c-.45.12-.91.25-1.36.39L539,198l-1.82.54-.4.12-1.54.47c-.93.28-1.85.57-2.78.87-1.47.47-2.94,1-4.4,1.46h0c-1.46.5-2.92,1-4.36,1.55h0c-1.44.53-2.88,1.07-4.32,1.63l-1.06.42-.43.17-1.27.5-1.38.56-1.37.57c-1.82.76-3.64,1.55-5.44,2.35l-1.35.61h0c-1.34.61-2.69,1.23-4,1.87s-2.67,1.29-4,1.95l-2,1-2,1c-.66.34-1.31.69-2,1l-1.95,1.06c-.87.48-1.74.95-2.6,1.44l-1.29.73c-1.07.61-2.14,1.23-3.2,1.86-1.6.94-3.18,1.9-4.76,2.88-1.05.65-2.1,1.32-3.14,2l-.35.23-1.21.78q-3.73,2.43-7.39,5c-1.22.85-2.44,1.72-3.64,2.61-.41.29-.81.58-1.21.89-.8.59-1.6,1.18-2.39,1.79l-1.74,1.33-.64.49-1.18.93c-.79.61-1.58,1.24-2.36,1.86s-1.56,1.26-2.33,1.9l-1.28,1.06-1,.87-1.15,1-1.15,1c-.77.66-1.53,1.32-2.29,2-.38.32-.75.65-1.12,1l-1.13,1-1.88,1.7-1.48,1.37c-1,.9-1.92,1.79-2.86,2.7l-1,.93c-.46.43-.91.87-1.36,1.31l-1.11,1.1-.24.23h0l-.35.34c-1.13,1.12-2.25,2.26-3.37,3.4l-1.56,1.63c-.35.36-.69.72-1,1.09s-1,1-1.42,1.5-.75.8-1.11,1.2-1,1.05-1.47,1.59l-1.62,1.79a0,0,0,0,1,0,0l-1.6,1.8c-1.07,1.22-2.13,2.44-3.18,3.68-.51.58-1,1.17-1.5,1.76a2.09,2.09,0,0,0-.14.17l-.57.68c-.32.37-.63.75-.93,1.12-.53.63-1.05,1.27-1.56,1.9s-1,1.27-1.54,1.91c-1,1.26-2,2.53-3,3.81l-.13.17q-1.47,1.89-2.92,3.81-2.24,3-4.42,6t-4.31,6.15c-.47.7-1,1.39-1.42,2.08l-1.4,2.1c-.46.7-.93,1.4-1.39,2.11l-1,1.59c-.51.8-1,1.6-1.54,2.41q-1.53,2.42-3,4.86c-.5.82-1,1.64-1.49,2.46l-1,1.65c-1.32,2.21-2.61,4.44-3.89,6.69-.42.75-.85,1.5-1.27,2.26s-.74,1.33-1.1,2c-.23.4-.45.8-.67,1.21-.37.66-.73,1.33-1.09,2l-.88,1.64q-1.23,2.3-2.43,4.64l-.62,1.21-.58,1.13h0q-1.19,2.35-2.35,4.72c-4.06,7.76-7.78,15.65-11.25,23.63-.88,2-1.73,4-2.58,6-.72,1.71-1.42,3.43-2.12,5.16q-1.9,4.68-3.72,9.4-2.66,6.82-5.16,13.71l-1.35,3.7c-.9,2.47-1.78,4.94-2.67,7.42l-2.64,7.43q-1.31,3.7-2.63,7.43l-3.56,10c-.24.66-.47,1.33-.71,2q-3.82,10.71-7.87,21.34h0c-.46,1.17-.92,2.35-1.39,3.52q-1.05,2.64-2.13,5.28t-2.18,5.28c-.52,1.26-1.05,2.52-1.59,3.77l-.81,1.89-.81,1.89-1.75,4-.09.18-.48,1.08c-.43,1-.87,2-1.32,2.95-.26.58-.53,1.16-.79,1.75-.53,1.16-1.06,2.31-1.6,3.47s-1.08,2.32-1.63,3.48q-1.23,2.59-2.48,5.18h0c-.55,1.15-1.12,2.29-1.68,3.44q-1.71,3.43-3.46,6.86c-.58,1.13-1.17,2.27-1.77,3.4-.44.85-.89,1.7-1.34,2.55l-1.36,2.54c-.61,1.13-1.22,2.25-1.84,3.37-.46.84-.93,1.68-1.4,2.52s-.93,1.67-1.41,2.51c-.63,1.11-1.26,2.22-1.9,3.33s-1.29,2.21-1.94,3.31l-1,1.65-2,3.28c-.67,1.1-1.34,2.18-2,3.27s-1.36,2.16-2,3.24l-1.43,2.23Q272,568.45,268,574.24c-.95,1.37-1.91,2.72-2.89,4.07q-2.12,2.94-4.3,5.84-.45.61-.93,1.23c-.82,1.08-1.64,2.15-2.47,3.22l-1,1.3c-.5.63-1,1.26-1.49,1.88l-.68.84-.68.84c-.12.15-.24.31-.37.46-.51.64-1,1.27-1.55,1.9l-1.71,2a2.09,2.09,0,0,1-.14.17l-1.73,2c-1.24,1.45-2.49,2.88-3.76,4.31q-1.23,1.39-2.49,2.76-7.11,7.79-14.75,15c-.92.87-1.85,1.73-2.78,2.58l-1.4,1.29q-2.82,2.54-5.7,5l-1.46,1.23c-1,.81-1.94,1.62-2.92,2.42l-2,1.57-.52.42-2,1.57-3,2.31c-1,.76-2,1.52-3.07,2.27-2.05,1.5-4.14,3-6.25,4.41l-2.38,1.6-1.2.79-1.21.78-1.52,1-.73.46-.06,0-1.41.88q-2.22,1.38-4.47,2.71h0l-2,1.19-1.3.75-1.9,1.06-1,.53H27.44l-.52,0-.73,0A26.93,26.93,0,0,1,1,636.78V604.49c26.53,9,56.09,16.42,84.14,16.18,66.76,1.8,128.08-35.08,168.47-86.63,25.61-33,46.19-69.72,62.39-108.19q1.9-4.49,3.71-9c2.91-7.36,5.66-14.79,8.35-22.26,1.78-4.93,3.52-9.87,5.26-14.83.46-1.3.92-2.61,1.37-3.92,8-22.94,16.05-45.92,26.35-67.87.57-1.24,1.16-2.48,1.76-3.71,3-6.19,6.16-12.28,9.59-18.27q1.49-3,3-5.88a333.68,333.68,0,0,1,17.46-29.5q5.49-8.31,11.44-16.15c.86-1.16,1.75-2.31,2.64-3.45C460.13,162.75,537,123.38,626.21,129.35h.15a323.86,323.86,0,0,1,33.23,4.29Z" fill="#fce635"/><path d="M660,36.33V80.87a264,264,0,0,0-65.78-4.6l-2.42.14c-.8.06-1.61.11-2.41.18-.48,0-1,.06-1.45.11h-.16l-1.6.14c-.54.05-1.07.09-1.6.15l-1.15.11-1.9.19-3.1.35h0a244.7,244.7,0,0,0-88.09,27.92l-1.29.71-1.36.75h0c-.94.53-1.87,1-2.79,1.59l-1.47.85-1.38.82-1.38.83c-.94.56-1.87,1.13-2.8,1.72l-1.35.84-.82.53-1.21.78c-.53.34-1.06.68-1.58,1l-1.53,1a245.19,245.19,0,0,0-43.63,37.38l-1.13,1.24-1.13,1.24-1.22,1.31c-.81.87-1.61,1.75-2.4,2.63s-1.59,1.76-2.37,2.65-1.56,1.78-2.33,2.68L415.58,168l-.28.33-1.57,1.87L411.49,173l-2.21,2.76-.85,1.08-.85,1.09-.48.61c-.36.47-.72.93-1.07,1.4q-1.38,1.8-2.73,3.62l-.45.61-.84,1.13-.64.89c-.45.61-.89,1.22-1.33,1.84l-1.31,1.84c-.35.48-.68,1-1,1.45-.67,1-1.34,1.92-2,2.89l-1,1.45c-.66,1-1.31,1.95-2,2.92h0c-.64,1-1.29,2-1.92,2.94h0c-.52.8-1,1.59-1.54,2.4s-.87,1.36-1.3,2l-.24.39c-.51.8-1,1.6-1.5,2.41s-1.09,1.78-1.63,2.67l-1.22,2c-.6,1-1.19,2-1.78,3l-1.17,2-.14.25c-.44.77-.89,1.55-1.32,2.32h0l-1.4,2.49c-.47.85-.94,1.69-1.4,2.54s-.9,1.64-1.35,2.47l-1.37,2.54c-.89,1.67-1.77,3.36-2.64,5-.45.85-.88,1.7-1.31,2.55s-.87,1.7-1.3,2.55h0c-.43.85-.85,1.7-1.27,2.56s-.85,1.71-1.27,2.57c-.84,1.72-1.66,3.44-2.48,5.17s-1.64,3.45-2.44,5.19l-1.2,2.61c-.37.81-.74,1.62-1.1,2.44-.07.15-.14.3-.2.45-.3.65-.6,1.31-.89,2q-2.13,4.8-4.19,9.63c-.36.84-.72,1.68-1.07,2.52l-.15.36c-.41,1-.81,1.93-1.21,2.9l-1.44,3.48c-.89,2.18-1.78,4.37-2.65,6.56s-1.75,4.39-2.6,6.59l-1.26,3.24-1.38,3.61c-.3.77-.59,1.54-.88,2.31l-.85,2.26c-.24.64-.47,1.27-.71,1.9-.37,1-.73,2-1.09,2.94-.15.4-.3.79-.44,1.19-.6,1.62-1.2,3.25-1.79,4.87-.93,2.55-1.86,5.11-2.77,7.68l-1.11,3.1c-.8,2.25-1.6,4.51-2.39,6.76l-2.33,6.66c-.38,1.12-.77,2.23-1.15,3.34q-1.16,3.33-2.3,6.65L322.47,356c-.35.92-.69,1.83-1,2.74l-1.05,2.73C295.26,426.44,259.61,484,212.8,521.69c-.32.27-.65.53-1,.79l-.66.52C156.49,566.22,86.76,582.36,1,551.71V509.53c4.54,1.61,15.44,5.08,40.46,9C149.42,539,237.09,458.94,281,367.58,304,323.84,317,275.89,335.65,230.33,391.47,91.77,506.59,2,660,36.33Z" fill="#fa0"/><path d="M660,80.87v52.85a281.84,281.84,0,0,0-33.64-4.36h-.15c-111-7.43-202.93,55.35-253.82,156.62-23.45,41-35.42,87.16-52.68,130.86C303,458.57,281.22,498.47,253.61,534c-40.39,51.55-101.71,88.43-168.47,86.63-28,.24-57.61-7.19-84.14-16.18V551.26C86.94,581.79,156.6,565.92,211.16,523l.66-.52c.33-.26.66-.52,1-.79,46.86-37.53,82.46-95.08,107.58-160.18.36-.91.7-1.82,1.05-2.73s.69-1.83,1-2.74c.39-1.11.76-2.22,1.15-3.33q1.14-3.31,2.3-6.65c.38-1.11.77-2.22,1.15-3.34l2.33-6.66c.79-2.25,1.59-4.51,2.39-6.76l1.11-3.1c.91-2.57,1.84-5.13,2.77-7.68.59-1.62,1.19-3.25,1.79-4.87.14-.4.29-.79.44-1.19.36-1,.72-2,1.09-2.94.24-.63.47-1.26.71-1.9l.85-2.26c.29-.77.58-1.54.88-2.31l1.38-3.61,1.26-3.24q1.28-3.3,2.6-6.59c.87-2.19,1.76-4.38,2.65-6.56l1.44-3.48c.4-1,.8-1.93,1.21-2.9l.15-.36c.35-.84.71-1.68,1.07-2.52q2.06-4.83,4.19-9.62c.3-.66.59-1.32.89-2l.19-.45,1.11-2.44,1.2-2.61c.8-1.74,1.62-3.47,2.43-5.19s1.65-3.45,2.49-5.17c.42-.86.84-1.72,1.27-2.57s.84-1.71,1.27-2.56h0c.43-.86.86-1.71,1.3-2.56s.87-1.7,1.31-2.55q1.31-2.52,2.64-5l1.37-2.54,1.35-2.47c.46-.85.93-1.69,1.41-2.54L379,221h0c.43-.77.88-1.55,1.32-2.32l.14-.25c.39-.67.78-1.33,1.16-2,.6-1,1.19-2,1.79-3l1.22-2c.54-.89,1.08-1.78,1.63-2.67s1-1.61,1.5-2.41l.24-.39c.43-.68.86-1.36,1.3-2s1-1.61,1.54-2.4h0l1.92-2.94h0c.64-1,1.29-1.95,2-2.92l1-1.45c.66-1,1.33-1.93,2-2.89l1-1.45c.43-.62.87-1.23,1.31-1.85l1.33-1.83.64-.88.84-1.14.45-.61q1.35-1.82,2.73-3.62c.35-.47.71-.93,1.07-1.4l.48-.61.85-1.09.85-1.08,2.21-2.76c.74-.91,1.49-1.83,2.25-2.74.51-.62,1-1.25,1.56-1.87.09-.11.19-.22.28-.34l1.59-1.85c.77-.9,1.55-1.79,2.33-2.68s1.57-1.77,2.37-2.65,1.59-1.76,2.4-2.63c.4-.44.81-.87,1.22-1.31l1.12-1.24,1.14-1.24A241.39,241.39,0,0,1,471.38,117l1.53-1c.52-.35,1-.69,1.58-1l1.21-.78.82-.53,1.35-.84c.94-.59,1.86-1.16,2.8-1.72l1.38-.83,1.38-.82,1.47-.85c.93-.53,1.85-1.06,2.79-1.58h0l1.36-.76,1.29-.71a246.39,246.39,0,0,1,88.09-27.92h0l3.1-.35,1.9-.19,1.14-.11,1.61-.15,1.6-.14h.16l1.45-.11c.8-.07,1.61-.12,2.41-.18l2.42-.14A260.86,260.86,0,0,1,660,80.87Z" fill="#ffcf64"/><path d="M660,250.87v67.42c-69.73-18.42-146.54,3.21-199.1,52.19-30.3,25.82-53.13,58.12-68.11,95-27.38,62.24-42.09,133-72.39,194H246.5c20.29-23.48,37-49.78,51.06-77.43q1.53-3,3-6h0c.66-1.34,1.31-2.68,2-4h0c.65-1.34,1.29-2.68,1.92-4,.32-.67.64-1.35.95-2,.43-.91.85-1.83,1.27-2.74l.16-.34.22-.48c.47-1,.95-2.08,1.41-3.12q1.41-3.12,2.78-6.26c.42-.95.84-1.91,1.25-2.87.08-.19.17-.38.24-.56.38-.9.77-1.8,1.15-2.69.05-.13.11-.25.15-.37s.09-.2.13-.3l.16-.37q1.8-4.29,3.55-8.6,1.59-4.18,3.16-8.4t3.11-8.43h0c1-2.82,2.07-5.63,3.09-8.45.44-1.19.87-2.39,1.3-3.58q.9-2.44,1.78-4.89,3.07-8.48,6.18-17,1-2.82,2.08-5.64c.35-.94.69-1.88,1.05-2.82.69-1.88,1.4-3.76,2.11-5.63.44-1.18.88-2.35,1.33-3.52.67-1.75,1.34-3.51,2-5.26s1.35-3.51,2-5.25,1.47-3.73,2.21-5.59c2.8-7,5.68-13.89,8.7-20.75h0c.8-1.83,1.62-3.66,2.44-5.48.62-1.36,1.24-2.72,1.87-4.08l.63-1.36,1.92-4.07c.21-.45.43-.9.65-1.35.43-.9.87-1.79,1.31-2.69l1.32-2.68,1.35-2.68c.45-.89.9-1.78,1.36-2.67q4.94-9.56,10.39-18.85l1.25-2.1q6.57-10.94,14-21.41,3-4.35,6-8.54c.64-.88,1.29-1.76,1.95-2.63.35-.48.71-1,1.06-1.42l1.43-1.87q6.83-8.89,14.2-17.08c1.16-1.3,2.34-2.58,3.52-3.85.67-.72,1.34-1.44,2-2.15s1.42-1.49,2.14-2.23h0q1.39-1.44,2.82-2.85,7.8-7.8,16.09-14.82l1.13-1,2.27-1.88,1.14-.93c1.53-1.24,3.08-2.47,4.63-3.67,1.29-1,2.59-2,3.89-2.95s2.62-1.93,3.94-2.88h0c.49-.36,1-.71,1.48-1.05l1.49-1.05,1.49-1,1.5-1,1.81-1.2,1.81-1.19.18-.12a246.06,246.06,0,0,1,42.62-22.08l3.6-1.41,1.87-.7.87-.32h0l1.84-.66c1.17-.42,2.36-.84,3.54-1.24.53-.19,1.06-.37,1.6-.54l.45-.15.9-.3c1-.32,2-.63,2.92-.93l1-.31.29-.1,1.07-.32h0q7.38-2.22,14.92-4c1.25-.3,2.52-.58,3.78-.85l1.89-.41,3.81-.76,1.47-.27c.32-.07.65-.12,1-.18l.21,0,.43-.08,1.07-.19,1.59-.27h0l1.45-.24,2.17-.34,2.17-.32A261.08,261.08,0,0,1,660,250.87Z" fill="#fa0"/><path d="M660,193.14v57.73l-.41-.08a261,261,0,0,0-86.46-2.45l-2.17.32-2.17.34-1.45.24h0l-1.59.27-1.07.19-.43.08-.21,0c-.32.06-.65.11-1,.18l-1.47.27c-1.27.24-2.54.5-3.81.76l-1.89.41c-1.26.27-2.53.55-3.78.85q-7.54,1.76-14.92,4h0l-1.07.32-.29.1-1,.31c-1,.3-1.95.61-2.92.93l-.9.3-.19.06-.26.09c-.54.17-1.07.35-1.6.54-1.18.4-2.37.81-3.54,1.24l-1.84.66h0l-.87.32-1.87.7-3.6,1.41q-4.55,1.82-9,3.82a246,246,0,0,0-31.1,16.66l-2.5,1.6-.18.12-1.81,1.19-1.81,1.2-1.5,1-1.49,1L466.3,291c-.49.34-1,.69-1.48,1.05h0c-1.32.95-2.63,1.9-3.94,2.88-.62.46-1.23.92-1.85,1.4l-2,1.55c-1.55,1.2-3.1,2.43-4.63,3.67l-1.14.93-2.27,1.88-1.13,1q-8.28,7-16.09,14.82-1.43,1.41-2.82,2.85c-.72.74-1.44,1.48-2.14,2.23s-1.36,1.43-2,2.15q-1.78,1.9-3.52,3.85-7.36,8.18-14.2,17.08l-1.43,1.87-.09.12c-.32.43-.65.86-1,1.3-.66.87-1.31,1.75-1.95,2.63q-3.06,4.2-6,8.54c-1.1,1.54-2.19,3.08-3.25,4.64q-5.67,8.23-10.78,16.77l-1.25,2.1q-3.07,5.2-5.95,10.51-2.28,4.14-4.44,8.34c-.46.89-.91,1.78-1.36,2.67l-1.35,2.68c-.44.89-.89,1.78-1.32,2.68s-.88,1.79-1.31,2.69c-.22.45-.44.9-.65,1.35-.65,1.35-1.28,2.71-1.92,4.07l-.63,1.36c-.56,1.21-1.12,2.43-1.67,3.64l-.2.44c-.82,1.82-1.64,3.65-2.44,5.48-3,6.86-5.9,13.79-8.7,20.75q-1.11,2.79-2.21,5.59-1,2.61-2,5.25c-.68,1.75-1.35,3.51-2,5.26-.45,1.17-.89,2.34-1.33,3.52-.71,1.87-1.42,3.75-2.11,5.63-.36.94-.7,1.88-1.05,2.82q-1.05,2.82-2.08,5.64-3.12,8.46-6.18,17-.88,2.44-1.78,4.89c-.43,1.19-.86,2.39-1.3,3.58-1,2.82-2.05,5.63-3.09,8.45h0q-1.54,4.21-3.11,8.43t-3.16,8.4h0q-1.74,4.31-3.55,8.59l-.16.37c0,.1-.08.2-.13.3s-.1.24-.15.37c-.38.89-.77,1.79-1.15,2.69-.07.18-.16.37-.24.56-.41,1-.83,1.92-1.25,2.87-.91,2.09-1.83,4.18-2.78,6.26-.46,1-.94,2.08-1.41,3.12l-.22.48-.16.34c-.42.91-.84,1.83-1.27,2.74-.31.67-.63,1.35-.95,2-.63,1.36-1.27,2.7-1.92,4h0c-.65,1.34-1.3,2.68-2,4q-1.49,3-3,6c-14,27.45-30.52,53.56-50.62,76.91l-.44.52H175.82l1-.52,1-.53,1.9-1.07,1.3-.74,2-1.19h0q2.25-1.34,4.47-2.71l1.41-.88.06,0,.73-.46,1.52-1,1.21-.79,1.2-.79,2.38-1.6c2.11-1.44,4.2-2.91,6.25-4.41,1-.75,2-1.51,3.07-2.27s2-1.54,3-2.32l2-1.56.52-.42,2-1.57c1-.8,2-1.61,2.92-2.42l1.46-1.23q2.88-2.46,5.7-5l1.4-1.29c.93-.85,1.86-1.71,2.78-2.58q7.65-7.21,14.75-15,1.26-1.36,2.49-2.76c1.27-1.43,2.52-2.86,3.76-4.31l1.73-2a2.09,2.09,0,0,0,.14-.17l1.71-2c.52-.63,1-1.26,1.55-1.9l.38-.46.67-.84.68-.84c.5-.62,1-1.25,1.49-1.88l1-1.3c.83-1.07,1.65-2.14,2.47-3.22q.48-.61.93-1.23,2.19-2.89,4.3-5.84c1-1.35,1.94-2.7,2.89-4.07q4-5.79,7.87-11.73l1.43-2.23c.68-1.08,1.37-2.16,2-3.24s1.34-2.17,2-3.27l2-3.28,1-1.65c.66-1.1,1.3-2.2,1.94-3.31s1.28-2.22,1.91-3.33c.47-.83.94-1.67,1.4-2.51s.94-1.68,1.4-2.52c.62-1.12,1.23-2.24,1.84-3.37l1.36-2.54c.45-.85.9-1.7,1.34-2.55.6-1.13,1.19-2.27,1.77-3.4q1.75-3.42,3.46-6.86c.56-1.15,1.13-2.29,1.68-3.44h0q1.25-2.58,2.48-5.18c.55-1.16,1.09-2.32,1.63-3.48s1.07-2.31,1.6-3.47c.26-.59.53-1.17.79-1.75.45-1,.89-2,1.32-2.95l.48-1.08.09-.18,1.75-4,.81-1.89.81-1.89c.54-1.25,1.07-2.51,1.59-3.77q1.11-2.64,2.18-5.28t2.13-5.28c.47-1.17.93-2.35,1.39-3.52h0c2.71-7.08,5.31-14.21,7.87-21.34.24-.66.47-1.33.71-2l3.56-10q1.32-3.72,2.63-7.43l2.64-7.43c.89-2.48,1.77-4.95,2.67-7.42l1.35-3.7q2.52-6.88,5.16-13.71,1.81-4.73,3.72-9.4c.7-1.73,1.4-3.45,2.12-5.16.85-2,1.7-4,2.58-6,3.47-8,7.19-15.87,11.25-23.63q1.17-2.37,2.35-4.72h0l.58-1.13.62-1.21q1.2-2.34,2.43-4.64l.88-1.64c.36-.67.72-1.34,1.09-2,.21-.41.44-.81.66-1.22l1.11-2c.42-.76.85-1.51,1.27-2.26,1.28-2.25,2.57-4.48,3.89-6.69l1-1.65c.49-.82,1-1.64,1.49-2.46q1.51-2.45,3-4.86c.51-.81,1-1.61,1.54-2.41l1-1.59c.46-.71.93-1.41,1.39-2.11l1.4-2.1c.47-.69.95-1.38,1.42-2.08q2.11-3.11,4.31-6.15t4.42-6q1.46-1.92,2.92-3.81l.13-.17c1-1.28,2-2.55,3-3.81.51-.64,1-1.28,1.54-1.91l1.55-1.9c.31-.37.62-.75.94-1.12l.57-.68a2.09,2.09,0,0,1,.14-.17c.5-.59,1-1.18,1.5-1.76,1.05-1.24,2.11-2.46,3.18-3.68l1.6-1.8a0,0,0,0,0,0,0l1.62-1.79q.73-.81,1.47-1.59c.36-.4.74-.8,1.11-1.2s.94-1,1.42-1.5.68-.73,1-1.09l1.56-1.63c1.12-1.14,2.24-2.28,3.37-3.4l.35-.34h0l.24-.23,1.11-1.1c.45-.44.9-.88,1.36-1.31l1-.93c.94-.91,1.9-1.8,2.86-2.7l1.48-1.37,1.88-1.7,1.13-1c.37-.34.74-.67,1.12-1,.76-.68,1.52-1.34,2.29-2l1.15-1,1.15-1,1-.87,1.28-1.06c.77-.64,1.55-1.27,2.33-1.9s1.57-1.25,2.36-1.86l1.18-.93.64-.49L460,238l2.39-1.79,1.21-.89c1.2-.88,2.42-1.75,3.64-2.61q3.65-2.58,7.39-5l1.21-.78.35-.23c1-.66,2.09-1.33,3.14-2,1.58-1,3.16-1.94,4.76-2.88,1.06-.63,2.13-1.25,3.2-1.86l1.29-.73c.86-.49,1.73-1,2.6-1.44l1.95-1.06,2-1,2-1,2-1c1.32-.66,2.66-1.31,4-1.95s2.67-1.26,4-1.87h0l1.35-.61c1.8-.8,3.62-1.59,5.44-2.35l1.37-.57,1.38-.56,1.27-.5.43-.17,1.06-.42c1.44-.55,2.88-1.1,4.32-1.63h0c1.44-.53,2.9-1.05,4.36-1.55h0c1.46-.5,2.93-1,4.4-1.46.93-.3,1.85-.59,2.78-.87l1.54-.47.4-.12L539,198l.47-.13c.45-.14.91-.27,1.36-.39l1.12-.31,1.86-.51,1.58-.41,2.88-.74q2.28-.56,4.56-1.08c1.54-.34,3.09-.68,4.64-1l2.33-.47c1.54-.3,3.1-.59,4.66-.86h0l1.52-.26q4.47-.76,9-1.35l3.58-.44c1.09-.13,2.18-.25,3.27-.35a5.51,5.51,0,0,1,.57-.06c1-.1,1.95-.2,2.93-.28l2.27-.19,1.82-.14q1.65-.12,3.3-.21c1.36-.09,2.73-.16,4.1-.22l3.88-.14.75,0,2,0q7.15-.14,14.44.13l3.26.14,1.64.08h0c.33,0,.67,0,1,.06s.71,0,1.06.06l2.84.19,1.65.11c1.65.13,3.3.27,5,.43l1.66.16,1.12.11.92.1,2.34.26c2.39.27,4.8.58,7.21.92,1.68.23,3.37.48,5.06.75l2.92.47,2.16.37c.6.1,1.2.2,1.79.32Z" fill="#ffcf64"/><path d="M93.72,379.55c0-18.81,8.73-27.63,13.1-32,13.1-13.23,28.51-14.56,36.21-15.22v-.22A67.15,67.15,0,0,1,131.59,331a50.16,50.16,0,0,1-11.11-3.38,34.41,34.41,0,0,1-9.79-5.92,24.87,24.87,0,0,1-6.74-9.3,30.07,30.07,0,0,1-2.6-13.06,34.33,34.33,0,0,1,1.44-10,35,35,0,0,1,5-10.29,37.46,37.46,0,0,1,8.79-9.3,41.37,41.37,0,0,1,13.71-6.59,63.23,63.23,0,0,1,19-2.54c10.17,0,15.36,1.77,18,2.65,7.8,2.66,10.53,5.09,11.89,6.31a29.06,29.06,0,0,1,6.58,8.14c2.49,4.48,2.93,6.33,3.15,7.25a23.37,23.37,0,0,1,.66,5.76,15.53,15.53,0,0,1-4.2,11.29c-4.2,4.76-9.36,4.76-11.94,4.76-6.3,0-9.07-2.92-10.45-4.38a15.39,15.39,0,0,1-4.15-11.45c0-6.09,2.66-8.82,4-10.19a15.24,15.24,0,0,1,10.94-4.43l-.11-.44a14.45,14.45,0,0,0-7.46-6.53A27.79,27.79,0,0,0,154,266.87c-12.49,0-16.62,5.27-18.69,7.91-6.19,7.92-6.19,17.21-6.19,21.86,0,15.83,5.16,21.51,7.74,24.36,7.74,8.52,16.81,8.52,21.34,8.52h1.55v6.09h-2a37.44,37.44,0,0,0-12.88,1.88c-5.7,1.88-8.09,4.1-9.29,5.2a35.58,35.58,0,0,0-6.14,7.25,28.59,28.59,0,0,0-3.81,8.69,60.65,60.65,0,0,0-1.77,8.8,64.3,64.3,0,0,0-.5,8.36c0,20.92,5.83,28.34,8.74,32C140.82,419,152.1,419,157.74,419a43.93,43.93,0,0,0,9.51-1,42.45,42.45,0,0,0,11.06-4.26A37.73,37.73,0,0,0,189,405.46c4.65-5,6.78-10.82,7.85-13.73a55.41,55.41,0,0,0,3.21-19.93l-.11-6.08-4.54.11H173.22a45.43,45.43,0,0,0-9.51.77,23.55,23.55,0,0,0-6.08,1.77,7.66,7.66,0,0,0-3.26,2.6,7.42,7.42,0,0,0-1.44,2.72,10,10,0,0,0-.28,2.54c0,3.54,1.55,4.43,2.33,4.87h.33a9,9,0,0,1,4.31-3.76,11.55,11.55,0,0,1,5.31-1.33,11.73,11.73,0,0,1,8.46,3,10.31,10.31,0,0,1,3.48,8.52c0,5.32-2.47,7.57-3.71,8.69a11.91,11.91,0,0,1-8.79,3.38,16.2,16.2,0,0,1-12.16-4.93c-5.2-4.92-5.2-12.3-5.2-16a40.06,40.06,0,0,1,.23-4.54,34,34,0,0,1,1.27-5.81,25.28,25.28,0,0,1,2.82-6.53,32.44,32.44,0,0,1,13.43-11.68,52.82,52.82,0,0,1,12.05-3.71,79.81,79.81,0,0,1,16.42-1.49h22.23a45.12,45.12,0,0,0,9.51-.78,23.1,23.1,0,0,0,6.08-1.77,7.74,7.74,0,0,0,3.26-2.6,7.42,7.42,0,0,0,1.44-2.71,10.48,10.48,0,0,0,.27-2.55c0-3.54-1.54-4.43-2.32-4.87h-.33a9,9,0,0,1-4.31,3.76,11.57,11.57,0,0,1-5.31,1.33,11.71,11.71,0,0,1-8.46-3,10.31,10.31,0,0,1-3.48-8.52c0-5.31,2.47-7.56,3.7-8.69a11.94,11.94,0,0,1,8.79-3.38,16.26,16.26,0,0,1,12.17,4.93c5.19,4.93,5.19,12.31,5.19,16a33.28,33.28,0,0,1-.33,4.92,57,57,0,0,1-1.32,6.2,18.7,18.7,0,0,1-3.49,7.08,40.15,40.15,0,0,1-6.19,6.42,31.38,31.38,0,0,1-10.06,5.43,60.76,60.76,0,0,1-14.43,3.15c.33,3.66.33,5.87.33,7,0,11.73-2.1,18.15-3.15,21.36a46.34,46.34,0,0,1-9.51,17.05,39.74,39.74,0,0,1-17,11.51,65.48,65.48,0,0,1-24.55,4.1c-15.92,0-23.7-2.48-27.59-3.71-11.66-3.71-16-8.14-18.19-10.35a38.61,38.61,0,0,1-9.51-14.72A49.24,49.24,0,0,1,93.72,379.55Z" fill="#2f5361"/><path d="M37.83,305.64v-3.47l11.85-.77V199.91l-11.85-.77v-3.46h72.74l.77,31.36H107A52.42,52.42,0,0,0,105.18,216a26.48,26.48,0,0,0-4-8.4,15.48,15.48,0,0,0-7.28-5.74,28.4,28.4,0,0,0-11.24-1.93c-8.85,0-11.82.52-13.31.77v47.47c1.92.08,2.13.08,2.23.08a43,43,0,0,0,8.62-.58,12.71,12.71,0,0,0,5.7-2.46,9.62,9.62,0,0,0,3.54-5.59,39,39,0,0,0,1-9.86h4.23v41.38H90.48c0-10.56-2.31-13.28-3.47-14.64-3.46-4.09-8.85-4.09-11.54-4.09l-6.08.08V301.4l14.93.77v3.47Z"/><path d="M176.76,301.71V260.17a99.48,99.48,0,0,0-.57-11.71,35.62,35.62,0,0,0-2.39-9.36,16.67,16.67,0,0,0-5-7.24c-1.08-.89-3.24-2.66-8.66-4.28C158.29,227,154.67,226,147,226a30.11,30.11,0,0,0-19.2,6.09c-2.79,2-8.35,6.09-8.35,15.18a10.27,10.27,0,0,0,2.61,7.24c.88,1,2.62,3.08,7.16,3.08a9,9,0,0,0,6.93-2.73,8.59,8.59,0,0,0,2.77-6.74c0-1.54,0-4.63-2.31-7.09-.77-.82-2.31-2.47-6.31-2.47a12.69,12.69,0,0,0-2.39.23v-.31c1.72-2.95,5.16-8.86,16.4-8.86a14.39,14.39,0,0,1,6.27,1.2,10.27,10.27,0,0,1,4,3,11.73,11.73,0,0,1,2.19,5.16,37.52,37.52,0,0,1,1,6.52c.07,1,.19,3.16.19,8.24v10.64a70.39,70.39,0,0,0-7.15-.31,52.14,52.14,0,0,0-12.9,1.42,33.75,33.75,0,0,0-9.74,3.82,25,25,0,0,0-6.61,5.62,20.24,20.24,0,0,0-3.89,6.75,20.83,20.83,0,0,0-1.2,7.28,18.49,18.49,0,0,0,5,13.41,14.63,14.63,0,0,0,8.66,5.05,26.14,26.14,0,0,0,5.73.57,21.94,21.94,0,0,0,13-3.58c1.79-1.2,5.35-3.58,9.12-10.91h.16l2.15,12.18h24.48v-3.16Zm-18.86-23.2a27.75,27.75,0,0,1-4.27,16c-1.42,2.19-4.27,6.55-9.5,6.55a7.09,7.09,0,0,1-6.78-3.81c-.77-1.27-2.31-3.82-2.31-10a25.29,25.29,0,0,1,.2-3.31,37.62,37.62,0,0,1,.73-4.09,14.1,14.1,0,0,1,1.77-4.51,18.94,18.94,0,0,1,3.08-3.89,11.65,11.65,0,0,1,5-2.93,19.94,19.94,0,0,1,7.12-1.07,37.39,37.39,0,0,1,5,.38Z"/><path d="M192.66,234.44v-3.16l16.09-1.7,10.85-2.85,1.08,2.24v10.4H221C230.15,226,238.77,226,243.08,226a22,22,0,0,1,5.23.58,22.72,22.72,0,0,1,5.35,2,14.63,14.63,0,0,1,5.12,4.47,22.38,22.38,0,0,1,3.62,7.36h.16C272.87,226,282,226,286.57,226a25.12,25.12,0,0,1,5.24.5,17.8,17.8,0,0,1,5.5,2.2,16.78,16.78,0,0,1,5.12,4.39,22.41,22.41,0,0,1,3.62,7.59A38.6,38.6,0,0,1,307.51,252v49.7l7.93.77v3.16H280.72v-3.16l7.85-.77v-52.4a29.61,29.61,0,0,0-.81-7.82,14.66,14.66,0,0,0-1.84-4.9,7.1,7.1,0,0,0-2.58-2.5,6.8,6.8,0,0,0-2.47-1,12.49,12.49,0,0,0-2.07-.15c-5.16,0-8.42,3.8-10.05,5.7-4.89,5.7-4.89,12.33-4.89,15.64v47.47l7.93.77v3.16H237.08v-3.16l7.85-.77v-52.4a31.42,31.42,0,0,0-.77-7.82,14,14,0,0,0-1.81-4.9,7.18,7.18,0,0,0-2.54-2.5,6.49,6.49,0,0,0-2.43-1,12.49,12.49,0,0,0-2.07-.15c-4.93,0-8.06,4.41-9.63,6.62A26.44,26.44,0,0,0,221,255.78v45.93l7.93.77v3.16H194.2v-3.16l7.93-.77V234.44Z"/><path d="M393.28,251.89c-.12-.37-.25-.81-.4-1.3A42.75,42.75,0,0,0,387,238.83,27.65,27.65,0,0,0,376,229.47c-.38-.2-.83-.43-1.35-.67A31.15,31.15,0,0,0,360.76,226a30.6,30.6,0,0,0-18.36,5.43c-2.7,1.81-8.12,5.44-12.62,14.91-1.5,3.16-4.5,9.48-4.5,21.12a53.62,53.62,0,0,0,2.07,15.64,38,38,0,0,0,6.28,12.83,25,25,0,0,0,7.8,7.13,33.07,33.07,0,0,0,3.28,1.73c2.3,1.07,6.89,3.2,15.9,3.2H361a29.64,29.64,0,0,0,17.77-5.51c2.68-1.83,8.05-5.51,12.36-14.83,1.43-3.11,4.31-9.33,4.31-20.65A48.46,48.46,0,0,0,393.28,251.89ZM362.8,304.24a12.48,12.48,0,0,1-2.5.24,9.53,9.53,0,0,1-7.08-2.77c-1-.92-3-2.77-4.77-8a44.52,44.52,0,0,1-1.43-5c-.41-1.8-.83-4.06-1.19-6.92a133.54,133.54,0,0,1,0-30.09,56.11,56.11,0,0,1,2.62-11.64,18.55,18.55,0,0,1,4.77-7.86,9.55,9.55,0,0,1,7.08-2.77,11,11,0,0,1,7.47,2.5,12,12,0,0,1,3.2,3.89s0,0,0,0a22.27,22.27,0,0,1,1.61,3.73A51.55,51.55,0,0,1,375,251.39a135.94,135.94,0,0,1,.73,16c0,3.51,0,8-.35,12.67C374.59,290.88,371.86,302.46,362.8,304.24Zm-2.5.24a9.53,9.53,0,0,1-7.08-2.77c-1-.92-3-2.77-4.77-8a44.52,44.52,0,0,1-1.43-5l-.36.9q-1.32,3.28-2.6,6.59l-1.26,3.24c-.46,1.2-.91,2.39-1.37,3.58a33.07,33.07,0,0,0,3.28,1.73c2.3,1.07,6.89,3.2,15.9,3.2H361c.57-1.24,1.16-2.48,1.76-3.71A12.48,12.48,0,0,1,360.3,304.48Z"/><path d="M404.26,234.44v-3.16l16.09-1.7,10.85-2.85,1.46,2.24V284.6a24.47,24.47,0,0,0,1,7.79,13.41,13.41,0,0,0,2.15,4.81,7.85,7.85,0,0,0,3,2.47,8.34,8.34,0,0,0,2.81,1,18.13,18.13,0,0,0,2.23.12c5.39,0,8.39-4.55,9.9-6.82a28.78,28.78,0,0,0,4.5-16.76V234.44h-9.47v-3.16l16.09-1.7,10.85-2.85,1.39,2.24v72.74l7.93.77v3.16H460.84l-2.31-11.87h-.31a49.37,49.37,0,0,1-3.77,5,44.17,44.17,0,0,1-4.47,4.4,17.77,17.77,0,0,1-6.19,3.58,21.39,21.39,0,0,1-7.51,1.23,29.3,29.3,0,0,1-5.39-.46,22.8,22.8,0,0,1-5.89-2,16.4,16.4,0,0,1-5.61-4.24,21.69,21.69,0,0,1-4-7.48,33.73,33.73,0,0,1-1.65-11.28v-48Z"/><path d="M521.78,304.18c8.78,0,11.57-2.16,13-3.24,4.2-3.24,4.2-6.47,4.2-8.09a10.82,10.82,0,0,0-.81-4.51,11.47,11.47,0,0,0-2.62-3.78,26.86,26.86,0,0,0-4.77-3.69c-3-1.89-5.89-3.49-7.35-4.28-3.85-2.24-6.72-3.85-8.16-4.66a44.32,44.32,0,0,1-8-5.63,27.15,27.15,0,0,1-6.08-7.44,19.47,19.47,0,0,1-2.42-10.17,20.3,20.3,0,0,1,2-9.48,19.55,19.55,0,0,1,5.58-7.2,24.55,24.55,0,0,1,8.54-4.59,33.58,33.58,0,0,1,10.89-1.61,35.2,35.2,0,0,1,9,1.11,26,26,0,0,1,8.12,3.36,17.58,17.58,0,0,1,5.85,5.54,12.84,12.84,0,0,1,2.24,7.71,9.2,9.2,0,0,1-.58,3.31,8.91,8.91,0,0,1-4.54,5,8.25,8.25,0,0,1-3.81.81c-4.47,0-6-1.64-6.7-2.47a8.21,8.21,0,0,1-2.23-6,9.66,9.66,0,0,1,.61-3.81,6.94,6.94,0,0,1,1.66-2.62,6.14,6.14,0,0,1,2.38-1.54,7.3,7.3,0,0,1,2.74-.5h.69v-.16a9.08,9.08,0,0,0-2.23-2.35,16.53,16.53,0,0,0-3.47-2,22.15,22.15,0,0,0-4.46-1.43,23.17,23.17,0,0,0-5.24-.54,17.68,17.68,0,0,0-6.92,1.08,13.07,13.07,0,0,0-4.66,2.74,9.85,9.85,0,0,0-2.66,3.66,9.14,9.14,0,0,0-.84,3.85,8.82,8.82,0,0,0,.69,3.85,9.94,9.94,0,0,0,2.43,3.28,29.84,29.84,0,0,0,4.77,3.58c3,1.93,6.12,3.73,7.66,4.63,4.46,2.31,7.77,4.06,9.43,4.93a49.91,49.91,0,0,1,9.12,6.05,29.77,29.77,0,0,1,6.89,7.86,18.52,18.52,0,0,1,2.73,10.36,20.31,20.31,0,0,1-1.89,9.17,17.64,17.64,0,0,1-5.85,7.17,28.26,28.26,0,0,1-10.08,4.66,54.36,54.36,0,0,1-14.51,1.66,38.24,38.24,0,0,1-8.54-1,27.87,27.87,0,0,1-8.39-3.2,18.85,18.85,0,0,1-6.39-5.7,13.74,13.74,0,0,1-2.54-8.6,11.93,11.93,0,0,1,.69-4.16,11.13,11.13,0,0,1,2-3.58,8.76,8.76,0,0,1,3.12-2.51,9,9,0,0,1,4.23-.92,8.25,8.25,0,0,1,3.7.73,8.29,8.29,0,0,1,4.46,4.74,10.46,10.46,0,0,1,.7,3.47,8.28,8.28,0,0,1-.77,3.81,7.52,7.52,0,0,1-2,2.74,9.17,9.17,0,0,1-5.92,2.23h-.66a2.91,2.91,0,0,1-.65-.07v.15a10.57,10.57,0,0,0,2.08,3,13.52,13.52,0,0,0,3.5,2.62,20.79,20.79,0,0,0,4.93,1.88A23.23,23.23,0,0,0,521.78,304.18Z"/><path d="M241.85,373.5a71.24,71.24,0,0,1,1.81-16.29,63.1,63.1,0,0,1,5.85-16.11,56.24,56.24,0,0,1,9.77-14,40.91,40.91,0,0,1,14.36-9.82,44.79,44.79,0,0,1,18.94-3.74c15.54,0,22.34,4.42,25.74,6.63,10.2,6.63,10.2,12.64,10.2,15.64a11.07,11.07,0,0,1-3.08,8.25,10.5,10.5,0,0,1-8.46,3.39c-5,0-7.11-2.08-8.16-3.12a10.16,10.16,0,0,1-3.16-7.9c0-5.24,2.21-7.22,3.31-8.21a11.75,11.75,0,0,1,8.47-3V325c-1.69-2-5.36-3.6-7.2-4.4a31.66,31.66,0,0,0-13.05-2.38c-10.85,0-16.13,4.49-18.78,6.74a39.94,39.94,0,0,0-12,18.61A81.58,81.58,0,0,0,262.33,371c0,5.32.23,8.61.34,10.25a91.73,91.73,0,0,0,1.35,10.4,64.56,64.56,0,0,0,2.58,10.1,42.52,42.52,0,0,0,4.19,8.9,28.69,28.69,0,0,0,6.08,7.28,25,25,0,0,0,8.39,4.78,30.47,30.47,0,0,0,10.86,1.77,47.48,47.48,0,0,0,14.31-2.31v-42L299,379.28v-3.46h40.34v3.46l-11.32.85V421a53.25,53.25,0,0,1-16.24,5.86,89.84,89.84,0,0,1-19.94,2.08C241.85,428.91,241.85,392,241.85,373.5Z"/><path d="M347,355v-3.16l16.09-1.69,10.86-2.86,1.07,2.24v13.25h.31a36.3,36.3,0,0,1,3.77-6,32,32,0,0,1,4.89-5.2,22.9,22.9,0,0,1,5.66-3.66,13.34,13.34,0,0,1,6.08-1.39c6,0,8.18,2.14,9.27,3.2a12.63,12.63,0,0,1,2.58,12.64,9,9,0,0,1-2,3.27,8.74,8.74,0,0,1-3.08,2.2,9.1,9.1,0,0,1-4,.81,9.85,9.85,0,0,1-4.16-.77,9,9,0,0,1-5.08-5.13,9.48,9.48,0,0,1-.69-3.73c0-4.09,1.13-5.37,1.69-6v-.47a12.13,12.13,0,0,0-5.43,2.93,21.84,21.84,0,0,0-4.81,6.28,37.51,37.51,0,0,0-3.46,9.56,53.28,53.28,0,0,0-1.31,12.6v38.37l7.93.77v3.16H348.53v-3.16l7.93-.77V355Z"/><path d="M475.32,422.29V380.75c0-1.58,0-4.25-.19-7.26-.05-1.43-.15-2.91-.35-4.44a35.19,35.19,0,0,0-2.16-8.72c-.08-.22-.17-.44-.26-.67a16.07,16.07,0,0,0-5-7.21c-1.09-.89-3.21-2.67-8.63-4.3-1.83-.54-5.43-1.63-13.13-1.63a30.24,30.24,0,0,0-19.24,6.08c-2.76,2.07-8.34,6.12-8.34,15.21a10.18,10.18,0,0,0,2.62,7.21c.89,1,2.61,3.11,7.15,3.11a9.09,9.09,0,0,0,7-2.76,8.6,8.6,0,0,0,2.76-6.72c0-1.53,0-4.64-2.32-7.11-.79-.79-2.32-2.42-6.31-2.42a14.22,14.22,0,0,0-2.37.2V359c1.68-3,5.13-8.84,16.38-8.84a14.58,14.58,0,0,1,6.27,1.18,10.45,10.45,0,0,1,4,3c.5.59,1.43,1.77,2.22,5.13a40.7,40.7,0,0,1,.94,6.52c.05,1,.2,3.16.2,8.25V384.9c-1.14-.1-3.41-.3-7.16-.3-.91,0-2.16,0-3.69.09a47.36,47.36,0,0,0-9.18,1.35,32.78,32.78,0,0,0-9.77,3.8,25,25,0,0,0-6.61,5.63,20.1,20.1,0,0,0-3.9,6.72A21.07,21.07,0,0,0,415,409.5a18.18,18.18,0,0,0,2.38,9.73,21.63,21.63,0,0,0,2.66,3.65,13.74,13.74,0,0,0,7,4.6,23.46,23.46,0,0,0,7.4,1,22,22,0,0,0,13-3.55c1.78-1.24,5.38-3.61,9.13-10.92h.15l2.17,12.15h24.47V423Zm-18.84-23.21a27.68,27.68,0,0,1-4.3,16.05c-1.38,2.17-4.24,6.52-9.47,6.52a7.15,7.15,0,0,1-6.81-3.8A15.73,15.73,0,0,1,435,416a20.86,20.86,0,0,1-1.34-8.15,25.71,25.71,0,0,1,.2-3.31,30.88,30.88,0,0,1,.69-4.1,14.52,14.52,0,0,1,1.78-4.5,20.05,20.05,0,0,1,3.11-3.9,11.75,11.75,0,0,1,4.93-2.91,20.29,20.29,0,0,1,7.15-1.09,35.27,35.27,0,0,1,5,.4Z"/><polygon points="483.34 352 483.34 348.85 519.75 348.85 519.75 352 511.44 352.85 529.6 401.4 529.91 401.4 546.54 352.85 538.07 352 538.07 348.85 559.16 348.85 559.16 352 551.15 352.85 525.37 426.98 521.83 426.98 490.96 352.85 483.34 352"/><path d="M564.51,453a10.35,10.35,0,0,1,2.74-7.63,8.35,8.35,0,0,1,6.89-3.08c4.46,0,6,1.85,6.73,2.78a10,10,0,0,1,2.27,6.85,9.36,9.36,0,0,1-1,3.7,7,7,0,0,1-2.5,3.24v.31a8.36,8.36,0,0,0,5.08-1.89,16.28,16.28,0,0,0,4.31-5.2,54.1,54.1,0,0,0,2.92-5.7c1-2.32,1.88-4.63,2.31-5.78l3.47-11.72-32.72-76-7.62-.85v-3.15h36.41V352l-8.31.85,20,50.24,15.09-50.24-8.47-.85v-3.15H633.1V352l-8,.85-25.55,86.62a78.26,78.26,0,0,1-5.54,13.1c-2.85,5.24-4.78,6.86-5.74,7.66a15.57,15.57,0,0,1-5.35,3.28,15.91,15.91,0,0,1-5.46.85c-5.78,0-8.16-2.16-9.36-3.24A10,10,0,0,1,564.51,453Z"/><path d="M659,26.85v605.3A26.93,26.93,0,0,1,632.15,659H26.85A26.93,26.93,0,0,1,0,632.15V26.85A26.93,26.93,0,0,1,26.85,0h605.3A26.93,26.93,0,0,1,659,26.85Z" fill="none"/></svg>