<svg xmlns="http://www.w3.org/2000/svg" viewBox="0 0 659 154.55"><path d="M659,119.55c0,.63,0,1.24,0,1.85,0,.43,0,.81,0,1.22,0,.21,0,.41,0,.61s0,.44,0,.66c0,1.16,0,2.22,0,3.3a51.25,51.25,0,0,1-.74,7.92,26.63,26.63,0,0,1-1.26,4.8c-.07.19-.14.38-.23.57a15,15,0,0,1-.65,1.41,22.89,22.89,0,0,1-9.75,9.73,24,24,0,0,1-6.74,2.22,51.55,51.55,0,0,1-7.55.66c-1.19,0-2.43,0-3.63,0H30.6c-1.24,0-2.44,0-3.66,0a52,52,0,0,1-7.55-.66,23.51,23.51,0,0,1-6.69-2.22,22.1,22.1,0,0,1-5.65-4.1,21.38,21.38,0,0,1-4.12-5.65q-.39-.76-.72-1.56a3,3,0,0,1-.15-.38,26.94,26.94,0,0,1-1.29-4.81,51.6,51.6,0,0,1-.71-7.94c0-.55,0-1.11,0-1.84,0-.18,0-.32,0-.65,0-.6,0-.86,0-1.19V31.05c0-.32,0-.59,0-1.18,0-.33,0-.47,0-.65,0-.74,0-1.3,0-1.84a51.35,51.35,0,0,1,.71-7.93,27,27,0,0,1,1.51-5.36c.2-.47.41-.94.65-1.4A21.76,21.76,0,0,1,7,7a22.48,22.48,0,0,1,5.66-4.13A24,24,0,0,1,19.37.71,51.37,51.37,0,0,1,27,.05L30.6,0H628.39l3.69.05a50.39,50.39,0,0,1,7.51.66,24.32,24.32,0,0,1,6.75,2.21A22.21,22.21,0,0,1,652,7a22.55,22.55,0,0,1,4.14,5.67c.23.46.44.92.64,1.39a26.08,26.08,0,0,1,1.48,5.35,51.56,51.56,0,0,1,.74,8c0,1,0,2.11,0,3.19v.47c0,.12,0,.23,0,.34,0,.33,0,.66,0,1v.12c0,.83,0,1.66,0,2.48Z" fill-rule="evenodd"/><path d="M375.85,73.73a46.84,46.84,0,0,0-46.6-43.46,46.33,46.33,0,0,0-26.79,8.48c-1.08.76-2.14,1.57-3.15,2.43a46.75,46.75,0,0,0-6.9,7.16,46.2,46.2,0,0,0-3.6,5.34,46.91,46.91,0,0,0-6.05,18.58,48.7,48.7,0,0,0-.26,5,46.9,46.9,0,0,0,6.53,24,46.19,46.19,0,0,0,6.71,8.81,46.35,46.35,0,0,0,33.51,14.23,46.41,46.41,0,0,0,28.25-9.56,46.75,46.75,0,0,0,9.27-9.42,47.29,47.29,0,0,0,9.22-28C376,76.08,376,74.9,375.85,73.73Zm-75.8-15.64c16.52-5,44-4.06,61.31,6.29a4.4,4.4,0,0,1,1.52,6,4.36,4.36,0,0,1-5.33,1.86,3.35,3.35,0,0,1-.66-.32c-15.06-9-39.91-9.82-54.3-5.43a4.4,4.4,0,0,1-2.54-8.42Zm50.63,40a2.91,2.91,0,0,1-4,1,44.81,44.81,0,0,0-20.83-6.4,60.94,60.94,0,0,0-9,.1,78.13,78.13,0,0,0-11.2,1.77,2,2,0,0,1-.48.06,2.89,2.89,0,0,1-3-2.27,2.92,2.92,0,0,1,2.19-3.5A82.52,82.52,0,0,1,319,86.72c11.64-.53,21.93,1.92,30.71,7.32A2.93,2.93,0,0,1,350.68,98.06Zm5.72-12.79a3.63,3.63,0,0,1-5,1.2c-.55-.34-1.1-.66-1.67-1-12.54-7-30.69-8.84-44.91-4.5a3.67,3.67,0,0,1-2.12-7c14.94-4.55,33.06-3.16,47,3.31a54,54,0,0,1,5.48,2.94A3.68,3.68,0,0,1,356.4,85.27Zm53.27-11.61c-8.07-1.93-9.51-3.29-9.51-6.14,0-2.7,2.53-4.51,6.28-4.51s7.25,1.37,11,4.21a.53.53,0,0,0,.4.1.51.51,0,0,0,.35-.22l3.94-5.58a.54.54,0,0,0-.1-.73,23.77,23.77,0,0,0-15.5-5.4c-8.71,0-14.8,5.26-14.8,12.79,0,8.06,5.25,10.92,14.33,13.13,7.72,1.78,9,3.28,9,6a4.14,4.14,0,0,1-.09.87c-.46,2.44-2.94,3.92-6.72,3.94h-.07a17.92,17.92,0,0,1-4.06-.45,19.47,19.47,0,0,1-7.88-4.11l-.91-.77a.5.5,0,0,0-.39-.13.52.52,0,0,0-.36.19l-4.42,5.28a.53.53,0,0,0,.06.74,3.22,3.22,0,0,0,.28.24,26.58,26.58,0,0,0,6.15,4.07,26.16,26.16,0,0,0,11.36,2.55,20.79,20.79,0,0,0,6.11-.85,13.48,13.48,0,0,0,6.47-4.06,12.37,12.37,0,0,0,2.87-8.23C423.51,79.8,419.5,76.07,409.67,73.66Zm47.38-1.4a14.72,14.72,0,0,0-12.29-6.6,12.63,12.63,0,0,0-10.16,4.91V66.86a.54.54,0,0,0-.53-.54h-7.23a.54.54,0,0,0-.53.54v41.31a.53.53,0,0,0,.53.53h7.23a.53.53,0,0,0,.53-.53v-13a15.18,15.18,0,0,0,2.26,2.09,12.78,12.78,0,0,0,7.9,2.53,14.75,14.75,0,0,0,8.48-2.68c3.91-2.74,6.73-7.57,6.73-14.36A18.42,18.42,0,0,0,457.05,72.26Zm-14,20.12a8.72,8.72,0,0,1-.9,0s0,0,0,0a8.41,8.41,0,0,1-6.68-4.81,10.84,10.84,0,0,1-1.07-4.81c0-5.52,3.72-9.68,8.66-9.68s8.49,4.07,8.49,9.68a11.41,11.41,0,0,1-1,4.85,8.1,8.1,0,0,1-4.65,4.35A8.42,8.42,0,0,1,443.08,92.38ZM479.6,65.66a17.09,17.09,0,0,0-17.37,17.17,16.75,16.75,0,0,0,7.2,13.88,17.26,17.26,0,0,0,7,2.85,18,18,0,0,0,15.81-5.14,16.61,16.61,0,0,0,3.6-5.81,17.11,17.11,0,0,0-16.28-23Zm0,26.78A8.83,8.83,0,0,1,473.47,90a10,10,0,0,1-3-7.32c0-5.57,3.77-9.62,9-9.62s9.14,4.19,9.14,9.74a11.24,11.24,0,0,1-.34,2.77A8.74,8.74,0,0,1,479.6,92.44Zm38.1-18.81a.52.52,0,0,0,.53-.53V66.86a.53.53,0,0,0-.53-.54h-8V58.15a.53.53,0,0,0-.53-.53H502a.53.53,0,0,0-.53.53v8.17H498a.53.53,0,0,0-.52.54V73.1a.52.52,0,0,0,.52.53h3.48V89.79c0,6.53,3.23,9.84,9.61,9.84a13,13,0,0,0,6.76-1.69.52.52,0,0,0,.27-.46v-6a.53.53,0,0,0-.25-.45.52.52,0,0,0-.51,0,9.15,9.15,0,0,1-4.25,1c-1.61,0-2.6-.51-3.06-1.62a5,5,0,0,1-.29-1.81v-15Zm65.15-7a.51.51,0,0,0-.43-.23h-7.53a.54.54,0,0,0-.5.35l-7.33,21.08-.37,1.06-.62-1.62L558.25,66.7a.53.53,0,0,0-.5-.34H545.41v-1c0-2.95,1.12-4.27,3.65-4.27a12,12,0,0,1,4.07.76.54.54,0,0,0,.48-.08.53.53,0,0,0,.22-.43V55.21a.53.53,0,0,0-.38-.51,19.62,19.62,0,0,0-6-.87c-6.68,0-10.2,3.78-10.2,10.93v1.53h-3.48a.54.54,0,0,0-.53.54V73.1a.53.53,0,0,0,.53.53h3.48V98.56a.52.52,0,0,0,.52.53H545a.53.53,0,0,0,.53-.53V73.63h6.74l4.91,11.82,2.43,5.87,3,7.23a5.23,5.23,0,0,1-2.22,2.81,3.77,3.77,0,0,1-1.68.33,8.24,8.24,0,0,1-4-1.14.51.51,0,0,0-.73.25l-2.27,5-.18.4a.51.51,0,0,0,.23.68,15.05,15.05,0,0,0,7.72,2,13.25,13.25,0,0,0,2.76-.27,9.28,9.28,0,0,0,6.11-4.75,26.25,26.25,0,0,0,2-4.2l1.26-3.27.41-1h0l10.87-28.25A.53.53,0,0,0,582.85,66.59Zm-53.5-.27h-7.23a.54.54,0,0,0-.53.54v31.7a.53.53,0,0,0,.53.53h7.23a.54.54,0,0,0,.25-.06.55.55,0,0,0,.28-.47V66.86A.54.54,0,0,0,529.35,66.32Zm-3.58-14.43A5.21,5.21,0,1,0,531,57.1,5.2,5.2,0,0,0,525.77,51.89Zm64.46,20a1.6,1.6,0,0,0,1.24-1.63c0-1.07-.82-1.71-2.06-1.71H587v5.36h1V72.07h1.11l1.3,1.85h1.21Zm-.86-.72h-1.32v-1.7h1.32c.66,0,1.06.29,1.06.85S590,71.18,589.37,71.18Zm.86.72a1.6,1.6,0,0,0,1.24-1.63c0-1.07-.82-1.71-2.06-1.71H587v5.36h1V72.07h1.11l1.3,1.85h1.21Zm-.86-.72h-1.32v-1.7h1.32c.66,0,1.06.29,1.06.85S590,71.18,589.37,71.18Zm.86.72a1.6,1.6,0,0,0,1.24-1.63c0-1.07-.82-1.71-2.06-1.71H587v5.36h1V72.07h1.11l1.3,1.85h1.21Zm-.86-.72h-1.32v-1.7h1.32c.66,0,1.06.29,1.06.85S590,71.18,589.37,71.18Zm.86.72a1.6,1.6,0,0,0,1.24-1.63c0-1.07-.82-1.71-2.06-1.71H587v5.36h1V72.07h1.11l1.3,1.85h1.21Zm-.86-.72h-1.32v-1.7h1.32c.66,0,1.06.29,1.06.85S590,71.18,589.37,71.18Zm-.27-4.92a5.13,5.13,0,1,0,5.09,5.11A5.13,5.13,0,0,0,589.1,66.26Zm0,9.75a4.62,4.62,0,1,1,4.57-4.64A4.52,4.52,0,0,1,589.08,76Zm2.39-5.74c0-1.07-.82-1.71-2.06-1.71H587v5.36h1V72.07h1.11l1.3,1.85h1.21l-1.44-2A1.6,1.6,0,0,0,591.47,70.27Zm-2.1.91h-1.32v-1.7h1.32c.66,0,1.06.29,1.06.85S590,71.18,589.37,71.18Z" fill="#1ed760" fill-rule="evenodd"/><path d="M67.2,84.4V64.78H62.5V88.89H77.94V84.4ZM84.37,64.78V88.89h4.76V64.78ZM113.15,78a8.06,8.06,0,0,0-4.33-2.88c-.37-.11-.75-.21-1.16-.29l-3.36-.65c-1.77-.34-2.62-1.39-2.62-2.72,0-1.6,1.5-3.06,3.77-3.06a4.46,4.46,0,0,1,3.18,1.13,4.17,4.17,0,0,1,1.21,2.27l3.5-1.07.72-.22a7.87,7.87,0,0,0-1-2.63,7.73,7.73,0,0,0-5.47-3.45,11.64,11.64,0,0,0-2.12-.18,9,9,0,0,0-5,1.51,7.24,7.24,0,0,0-3.36,6c0,.21,0,.42,0,.62,0,0,0,0,0,.06a6.56,6.56,0,0,0,4.17,5.55,10.41,10.41,0,0,0,2.13.67l3.36.68a5.24,5.24,0,0,1,1.48.53,2.64,2.64,0,0,1,1.45,2.33c0,1.5-1.09,2.65-3.06,2.9a5.77,5.77,0,0,1-.85.06c-3.31,0-5-2-5.25-4.33,0-.06,0-.13,0-.19L96.1,81.85A8.2,8.2,0,0,0,98,86.2a9.21,9.21,0,0,0,6.53,3.15c.38,0,.78.05,1.19.05a10.08,10.08,0,0,0,4.45-1A7.25,7.25,0,0,0,114.4,82,6.64,6.64,0,0,0,113.15,78Zm6.35-13.24v4.46h7.62V88.89h4.72V69.24h7.62V64.78ZM161,69.2V64.78H145.89V88.89H161V84.47h-10.4V78.89H160V74.71h-9.42V69.2Zm23.5-4.42v16l-10-16H168.6V88.89h4.69V71.79l.3.47,10,15.57.68,1.06h4.93V64.78Zm35-.51a12.15,12.15,0,0,0-12.38,12.58,12.18,12.18,0,0,0,5.47,10.55,12.94,12.94,0,0,0,14.23-.27,12.17,12.17,0,0,0,5.09-10.28A12.16,12.16,0,0,0,219.44,64.27Zm0,20.57c-3.71,0-7.51-2.58-7.51-8s3.8-8,7.51-8,7.55,2.58,7.55,8S223.18,84.84,219.44,84.84ZM255,64.78v16l-10-16h-5.85V88.89h4.69V71.79L253.55,87l1.22,1.91h4.93V64.78Z" fill="#fff" fill-rule="evenodd"/></svg>